<?xml version="1.0" encoding="UTF-8"?>
<svg version="1.1" xmlns="http://www.w3.org/2000/svg" width="1024" height="331">
<path d="M0 0 C11.88 0 23.76 0 36 0 C38.24976957 7.87419349 38.24976957 7.87419349 38.53076172 11.50268555 C38.63154274 12.73303276 38.63154274 12.73303276 38.73435974 13.98823547 C38.7988179 14.86223495 38.86327606 15.73623444 38.9296875 16.63671875 C39.00465958 17.57182785 39.07963165 18.50693695 39.15687561 19.47038269 C39.31796112 21.48723871 39.47592366 23.50434613 39.631073 25.52166748 C40.05007031 30.95966859 40.49413983 36.39565213 40.93359375 41.83203125 C41.02264481 42.94215576 41.11169586 44.05228027 41.20344543 45.19604492 C42.05309626 55.76141506 42.97636209 66.31924283 43.9375 76.875 C44.01687805 77.75208618 44.0962561 78.62917236 44.17803955 79.53283691 C45.17302721 90.49899906 46.23935458 101.45645631 47.36328125 112.41015625 C47.47860703 113.53941528 47.5939328 114.66867432 47.7127533 115.83215332 C48.27460032 121.32839616 48.84339763 126.82374002 49.42553711 132.31787109 C50.45966587 142.24796385 51.38896017 152.00348357 51 162 C51.66 162 52.32 162 53 162 C52.99120819 161.35553421 52.98241638 160.71106842 52.97335815 160.04707336 C52.91783908 152.70265263 53.24450449 145.4306454 53.7578125 138.10546875 C53.84475372 136.85976608 53.93169495 135.61406342 54.02127075 134.33061218 C55.16605003 118.7628694 56.89623798 103.25715701 58.60761642 87.74347687 C59.42487117 80.31322472 60.22488964 72.88108086 61.02734375 65.44921875 C61.15813796 64.24041298 61.15813796 64.24041298 61.29157448 63.00718689 C62.96408203 47.53868602 64.49492976 32.05926992 65.89599609 16.5637207 C66.0018528 15.40503731 66.0018528 15.40503731 66.10984802 14.22294617 C66.29153331 12.22652821 66.46910034 10.22973656 66.64624023 8.23291016 C67 5 67 5 68 0 C81.53 0 95.06 0 109 0 C110.41881151 4.96584028 111.3722561 8.95831529 111.9296875 13.9765625 C112.00475021 14.64285675 112.07981293 15.309151 112.15715027 15.99563599 C112.40333367 18.20472617 112.63966083 20.41472995 112.875 22.625 C112.95926239 23.39799438 113.04352478 24.17098877 113.13034058 24.96740723 C115.12895856 43.31139119 116.71601435 61.69249801 118.30963135 80.07518005 C120.56633825 106.0827856 123.21690209 132.04426334 126 158 C126.12117187 156.82566406 126.24234375 155.65132812 126.3671875 154.44140625 C126.53621806 152.81507918 126.70550926 151.18877918 126.875 149.5625 C127.00973976 148.26668251 127.00973976 148.26668251 127.14720154 146.94468689 C127.6483583 142.1750354 128.18678133 137.41339989 128.7830658 132.6547699 C129.97987391 123.03691243 130.65739938 113.41058732 131.26150513 103.7394104 C132.74720399 80.08647655 134.62385386 56.48271167 137.53125 32.95703125 C138.20201907 27.29462237 138.75512175 21.62175144 139.30297852 15.94628906 C140.73009976 1.26990024 140.73009976 1.26990024 142 0 C144.3756852 -0.0883967 146.72208674 -0.11530305 149.09765625 -0.09765625 C150.16094398 -0.09553383 150.16094398 -0.09553383 151.24571228 -0.09336853 C153.51801712 -0.08775443 155.79022475 -0.07519963 158.0625 -0.0625 C159.59960796 -0.05748681 161.13671745 -0.05292359 162.67382812 -0.04882812 C166.44925642 -0.03778042 170.22461171 -0.02050641 174 0 C175.17986067 4.38249149 174.84405255 8.34464597 174.328125 12.7890625 C174.2462645 13.55080276 174.16440399 14.31254303 174.08006287 15.09736633 C173.90273346 16.74305744 173.72215088 18.38840059 173.53866577 20.03341675 C173.04191136 24.49317798 172.57011237 28.95557817 172.09765625 33.41796875 C172.00116287 34.32521194 171.90466949 35.23245514 171.80525208 36.16719055 C170.97196715 44.08212692 170.31532664 52.00356219 169.6875 59.9375 C168.09283826 79.79573946 165.8093906 99.58730637 163.6003418 119.38452148 C161.01986689 142.53417328 158.51459201 165.69073355 156.66305542 188.91189575 C155.78510291 199.81852088 154.80530788 210.7046526 153.4375 221.5625 C153.32277344 222.50794678 153.20804688 223.45339355 153.08984375 224.42749023 C152.9196875 225.70281616 152.9196875 225.70281616 152.74609375 227.00390625 C152.64997803 227.73424072 152.5538623 228.4645752 152.45483398 229.21704102 C152 231 152 231 150 233 C148.05784607 233.24723816 148.05784607 233.24723816 145.65795898 233.24291992 C144.7604039 233.24599655 143.86284882 233.24907318 142.93809509 233.25224304 C141.96723465 233.24505753 140.99637421 233.23787201 139.99609375 233.23046875 C139.0024733 233.23001053 138.00885284 233.22955231 136.98512268 233.2290802 C134.88272916 233.22605609 132.78033791 233.2181651 130.67797852 233.20581055 C127.44734831 233.18755565 124.21700451 233.1853008 120.98632812 233.18554688 C118.94791417 233.1806318 116.90950217 233.17480353 114.87109375 233.16796875 C113.89820908 233.16685593 112.9253244 233.1657431 111.92295837 233.16459656 C111.02855545 233.15821671 110.13415253 233.15183685 109.21264648 233.14526367 C108.02589577 233.13954597 108.02589577 233.13954597 106.81517029 233.13371277 C105 233 105 233 104 232 C103.50492423 228.93809827 103.07688602 225.88864955 102.6875 222.8125 C102.49510742 221.31638184 102.49510742 221.31638184 102.29882812 219.79003906 C100.75524497 207.48160936 99.50438644 195.14067938 98.2301178 182.80212402 C98.14644455 181.99214966 98.0627713 181.18217529 97.9765625 180.34765625 C97.89357407 179.5441272 97.81058563 178.74059814 97.7250824 177.91271973 C96.99012838 170.83200879 96.18627116 163.75983873 95.375 156.6875 C94.273902 147.02684067 93.43039001 137.36351182 92.70092773 127.66821289 C92.1627436 120.64125979 91.42690783 113.67624032 90.46484375 106.6953125 C89.8499789 101.80739527 89.42296663 96.90774689 89 92 C84.96071312 121.5885974 81.50641539 151.25310226 78.875 181 C78.75262466 182.3822023 78.75262466 182.3822023 78.6277771 183.79232788 C78.54718048 184.70285919 78.46658386 185.6133905 78.38354492 186.55151367 C77.45449214 197.04288566 76.49769576 207.52728584 75.375 218 C75.26397949 219.08539063 75.15295898 220.17078125 75.03857422 221.2890625 C74.9304541 222.26617187 74.82233398 223.24328125 74.7109375 224.25 C74.62118652 225.08015625 74.53143555 225.9103125 74.43896484 226.765625 C74 229 74 229 72 233 C55.83 233 39.66 233 23 233 C20.74987269 225.12455442 20.74987269 225.12455442 20.34570312 220.90454102 C20.25220581 219.96147598 20.1587085 219.01841095 20.06237793 218.04676819 C19.9232196 216.54055153 19.9232196 216.54055153 19.78125 215.00390625 C19.67784302 213.93873276 19.57443604 212.87355927 19.46789551 211.77610779 C19.13916094 208.37212587 18.81962008 204.96734844 18.5 201.5625 C18.28572012 199.34044034 18.07088106 197.11843454 17.85546875 194.89648438 C16.93476183 185.32864872 16.04937261 175.76022284 15.28616333 166.17845154 C14.1650577 152.12753198 12.65369665 138.12745786 11.08554077 124.12042236 C10.29625806 117.06830918 9.52165651 110.01457025 8.74609375 102.9609375 C8.66956133 102.26557262 8.59302891 101.57020775 8.51417732 100.85377121 C5.90167917 77.10641051 3.35041514 53.35083722 1.65380859 29.51782227 C1.14374183 22.43023933 0.44369869 15.38265881 -0.47900391 8.33642578 C-0.87887579 5.12425107 -1.03980707 3.11942122 0 0 Z " fill="#DA1E2A" transform="translate(490,50)"/>
<path d="M0 0 C0.83272934 0.00222061 1.66545868 0.00444122 2.52342224 0.00672913 C3.46432205 0.00680466 4.40522186 0.00688019 5.37463379 0.00695801 C6.39754013 0.01211929 7.42044647 0.01728058 8.47434998 0.02259827 C9.51614914 0.02401321 10.5579483 0.02542816 11.63131714 0.02688599 C14.97355467 0.03250372 18.31572629 0.04505922 21.65794373 0.05775452 C23.91770839 0.06276723 26.17747409 0.06733053 28.4372406 0.07142639 C33.98999763 0.08247891 39.54271597 0.09923428 45.09544373 0.12025452 C47.23295569 4.86240674 48.85521403 9.45584976 50.18138123 14.50306702 C50.36327499 15.1905452 50.54516876 15.87802338 50.73257446 16.58633423 C51.31753533 18.80452994 51.89430464 21.02475267 52.47044373 23.24525452 C52.87642591 24.79453841 53.28259595 26.34377309 53.68894958 27.89295959 C55.97323606 36.63345981 58.17063628 45.3888487 60.20994568 54.19007874 C62.21824712 62.80344144 64.46195259 71.35505625 66.68983459 79.91352844 C68.95594486 88.6237542 71.1564239 97.33823174 73.11106873 106.12416077 C73.99552932 109.90990026 75.08406952 113.63392135 76.15696716 117.37001038 C76.51933472 118.63332687 76.88170227 119.89664337 77.25505066 121.19824219 C77.53238037 122.16250626 77.80971008 123.12677032 78.09544373 124.12025452 C78.09967566 123.48726724 78.1039076 122.85427996 78.10826778 122.20211124 C78.2114372 106.82151051 78.32005408 91.44095945 78.43478298 76.06044102 C78.49013205 68.62263138 78.54361675 61.18481695 78.59275818 53.7469635 C78.63557946 47.26641102 78.68185216 40.7858941 78.73232228 34.3053965 C78.75893986 30.87197 78.78379325 27.43855063 78.80451775 24.00508308 C78.82768099 20.17827271 78.85854772 16.35154624 78.89012146 12.52479553 C78.89587692 11.37824997 78.90163239 10.23170441 78.90756226 9.05041504 C78.91735107 8.01409943 78.92713989 6.97778381 78.93722534 5.9100647 C78.94367789 5.00394219 78.95013044 4.09781969 78.95677853 3.16423893 C79.09544373 1.12025452 79.09544373 1.12025452 80.09544373 0.12025452 C82.53204818 0.01942688 84.93969074 -0.01947152 87.37669373 -0.01255798 C88.10537659 -0.01351471 88.83405945 -0.01447144 89.58482361 -0.01545715 C91.12824083 -0.01613884 92.67166089 -0.01428536 94.21507263 -0.01011658 C96.58541772 -0.00476811 98.95557332 -0.0100619 101.32591248 -0.01646423 C102.82200665 -0.01580345 104.3181007 -0.01452228 105.81419373 -0.01255798 C106.5277301 -0.01458221 107.24126648 -0.01660645 107.97642517 -0.01869202 C112.98049181 0.0053026 112.98049181 0.0053026 114.09544373 1.12025452 C114.19787098 4.07396908 114.23429327 7.00444802 114.22915649 9.95874023 C114.23142205 10.89740057 114.23368761 11.83606091 114.23602182 12.8031655 C114.24239281 15.97389685 114.24153048 19.1445858 114.2407074 22.31532288 C114.24369695 24.57820695 114.247099 26.84109051 114.25088501 29.10397339 C114.25974976 35.26914382 114.26206415 41.43430039 114.2627008 47.59947658 C114.26364777 52.73651323 114.2673236 57.87354662 114.27087289 63.01058203 C114.27856043 74.43168789 114.28154066 85.85278468 114.28086754 97.27389245 C114.28082758 97.95981059 114.28078763 98.64572872 114.28074646 99.35243225 C114.28070558 100.03918353 114.2806647 100.7259348 114.28062258 101.43349672 C114.28021599 112.5674551 114.28978773 123.70137968 114.30388483 134.83532827 C114.31823047 146.25527919 114.32497264 157.67520675 114.32429105 169.09516817 C114.32403536 175.51155995 114.32692569 181.9279135 114.3374691 188.34429741 C114.34710948 194.37622263 114.34725734 200.40807276 114.33995247 206.44000053 C114.33890156 208.65965382 114.34129923 210.87931168 114.34731293 213.09895706 C114.35496467 216.11765642 114.35043366 219.13609199 114.34268188 222.15478516 C114.34782545 223.04319546 114.35296901 223.93160577 114.35826844 224.8469376 C114.32371489 230.89198335 114.32371489 230.89198335 112.09544373 233.12025452 C109.29859576 233.29550506 106.60216293 233.35168641 103.80638123 233.31556702 C102.98795746 233.31273712 102.16953369 233.30990723 101.3263092 233.30699158 C98.70753979 233.29577983 96.08911009 233.27067381 93.47044373 233.24525452 C91.69701116 233.23522599 89.92357324 233.22609992 88.15013123 233.21791077 C83.79843747 233.1958373 79.44699823 233.16130096 75.09544373 233.12025452 C73.17508714 229.47868944 71.6707801 226.13745666 70.77122498 222.12025452 C70.44190979 220.69060364 70.44190979 220.69060364 70.10594177 219.23207092 C69.87560242 218.20517151 69.64526306 217.17827209 69.40794373 216.12025452 C67.20134211 206.61263414 64.82663766 197.16824265 62.28294373 187.74525452 C59.32572831 176.76049814 56.42607116 165.76331252 53.59544373 154.74525452 C53.40703918 154.01225128 53.21863464 153.27924805 53.02452087 152.52403259 C50.9992264 144.63697271 48.99426568 136.74516201 47.02903748 128.84291077 C46.85993866 128.16347412 46.69083984 127.48403748 46.51661682 126.78401184 C45.73528923 123.64205648 44.95723853 120.49939541 44.18528748 117.3551178 C41.88636794 108.06578949 39.42828513 98.82107089 36.95701599 89.57655334 C36.58164711 88.17089798 36.20632377 86.76523045 35.83104706 85.35955048 C34.91970415 81.94631148 34.00774543 78.53323738 33.09544373 75.12025452 C33.09121179 75.92846869 33.08697985 76.73668287 33.08261967 77.56938839 C32.97945867 97.20603156 32.87084307 116.84263755 32.75610447 136.47921658 C32.70075099 145.97519112 32.64726556 155.47116942 32.59812927 164.96717834 C32.5553134 173.24080657 32.50904208 181.51440689 32.45856518 189.78799206 C32.43194324 194.17157403 32.40708973 198.5551504 32.38636971 202.93876457 C32.36683578 207.05991665 32.34270194 211.18101551 32.31495285 215.30212021 C32.30556516 216.8191068 32.29789611 218.33610509 32.29202461 219.85310936 C32.28379245 221.91535616 32.26952432 223.97747277 32.25366211 226.03967285 C32.24720956 227.19652305 32.24075701 228.35337324 32.23410892 229.5452795 C32.09544373 232.12025452 32.09544373 232.12025452 31.09544373 233.12025452 C28.74316054 233.23342736 26.42132425 233.28441989 24.06809998 233.28822327 C23.36398483 233.29155167 22.65986969 233.29488007 21.93441772 233.29830933 C20.44228266 233.30338107 18.95013622 233.30571758 17.45799255 233.30555725 C15.17093765 233.3077421 12.8843662 233.32589001 10.59739685 233.34486389 C9.15013288 233.34779806 7.70286661 233.3497827 6.25559998 233.35072327 C5.56909866 233.35790878 4.88259735 233.3650943 4.17529297 233.37249756 C-0.67573258 233.34907821 -0.67573258 233.34907821 -2.90455627 231.12025452 C-3.10045478 228.10152264 -3.16927804 225.17460124 -3.15179443 222.15478516 C-3.15420885 221.21456483 -3.15662326 220.2743445 -3.15911084 219.30563265 C-3.16477444 216.13561631 -3.15606471 212.96579911 -3.1474762 209.79579163 C-3.14854841 207.53113754 -3.15048619 205.26648373 -3.15322876 203.00183105 C-3.15808965 196.83676278 -3.15040615 190.67176652 -3.14027572 184.50670695 C-3.1315165 178.06893538 -3.13325224 171.63116621 -3.13363647 165.19338989 C-3.13269893 154.38148129 -3.12405616 143.56960469 -3.11036682 132.75770569 C-3.09627548 121.62260938 -3.08919616 110.4875376 -3.08985901 99.35243225 C-3.08989896 98.66651412 -3.08993892 97.98059599 -3.08998009 97.27389245 C-3.09002044 96.58918402 -3.0900608 95.90447559 -3.09010237 95.19901842 C-3.09075655 83.17904635 -3.08561541 71.15908601 -3.07731056 59.13911629 C-3.07377012 54.0127155 -3.07194623 48.88631826 -3.07141685 43.75991631 C-3.07041593 37.72963516 -3.06433991 31.69938001 -3.05425072 25.66910744 C-3.05131772 23.44903599 -3.05010195 21.22896155 -3.05067825 19.00888824 C-3.05116522 15.99214415 -3.04555025 12.97547407 -3.03826904 9.95874023 C-3.03981764 9.06809921 -3.04136625 8.17745818 -3.04296178 7.25982803 C-3.01453668 0.19033916 -3.01453668 0.19033916 0 0 Z " fill="#DA1E2B" transform="translate(239.90455627441406,49.87974548339844)"/>
<path d="M0 0 C1.309617 -0.0127597 2.61923401 -0.02551941 3.96853638 -0.03866577 C5.40984958 -0.04172709 6.85116475 -0.04395289 8.29248047 -0.04541016 C9.77587003 -0.05184228 11.25925833 -0.05857095 12.74264526 -0.06558228 C15.86491827 -0.07758425 18.98708054 -0.08126115 22.109375 -0.08007812 C26.06518401 -0.07987711 30.02025681 -0.1069365 33.97589302 -0.14162254 C37.04933761 -0.16415403 40.12261404 -0.16790744 43.19613266 -0.16685867 C44.65104534 -0.16918478 46.10596488 -0.17783469 47.56079483 -0.19352341 C60.72836831 -0.32197947 75.08052344 0.83124177 85.78466797 9.29052734 C86.65091797 9.88865234 87.51716797 10.48677734 88.40966797 11.10302734 C99.28809117 21.12262766 103.06088681 33.89153977 103.78466797 48.29052734 C104.46636562 66.93733618 105.06707758 85.23557842 92.94482422 100.62646484 C89.85161716 103.8347365 86.64585061 106.05683977 82.78466797 108.29052734 C83.49751953 108.77521484 84.21037109 109.25990234 84.94482422 109.75927734 C93.1563012 115.50620605 100.79608702 121.33375246 103.78466797 131.29052734 C104.03643799 132.09224365 104.28820801 132.89395996 104.54760742 133.7199707 C107.24023757 143.66693198 107.27525691 153.42653456 107.23071289 163.67333984 C107.22220314 166.65321027 107.25105265 169.63115753 107.28271484 172.61083984 C107.33573702 187.09342428 106.30740802 200.99666338 97.78466797 213.29052734 C97.37861328 213.88994141 96.97255859 214.48935547 96.55419922 215.10693359 C89.18314145 224.76928791 78.26136003 229.46917388 66.78466797 232.29052734 C66.20666443 232.46744614 65.62866089 232.64436493 65.03314209 232.8266449 C61.99224604 233.45401182 59.10163113 233.40971888 55.99658203 233.40405273 C54.98621132 233.40427177 54.98621132 233.40427177 53.95542908 233.40449524 C51.73701721 233.40380058 49.51869011 233.39602915 47.30029297 233.38818359 C45.75901332 233.38631783 44.21773309 233.38489467 42.67645264 233.38389587 C38.62569533 233.3800832 34.57497406 233.37026359 30.52423096 233.35919189 C26.388392 233.3489509 22.25254721 233.3443925 18.11669922 233.33935547 C10.00600563 233.32864019 1.89534128 233.31157878 -6.21533203 233.29052734 C-7.79504029 230.48504172 -8.46549478 228.47360996 -8.46701431 225.25877953 C-8.47222981 224.46131793 -8.4774453 223.66385634 -8.48281884 222.84222925 C-8.4783574 221.97199959 -8.47389596 221.10176993 -8.46929932 220.20516968 C-8.4724193 219.27619672 -8.47553928 218.34722377 -8.47875381 217.39010012 C-8.48674587 214.27009379 -8.48040545 211.1502813 -8.47412109 208.03027344 C-8.47683038 205.79650254 -8.48039096 203.56273254 -8.48474121 201.32896423 C-8.49387383 195.2569242 -8.49031761 189.18495199 -8.48398304 183.11291075 C-8.47892884 176.76770561 -8.48361276 170.42250638 -8.48675537 164.07730103 C-8.49062954 152.73986467 -8.48440529 141.40246284 -8.4742367 130.06503339 C-8.46529679 119.77885461 -8.46685676 109.49272095 -8.47607422 99.20654297 C-8.48676865 87.26652293 -8.4907662 75.32653031 -8.48484969 63.38650382 C-8.48172525 57.06405848 -8.48133374 50.74164426 -8.48792267 44.4192009 C-8.4936813 38.47833458 -8.48972652 32.53755388 -8.47813416 26.59669685 C-8.47547985 24.41090729 -8.4762657 22.22511057 -8.48065948 20.03932381 C-8.48608593 17.06675638 -8.47931635 14.09446719 -8.46929932 11.12191772 C-8.47376076 10.24722662 -8.4782222 9.37253552 -8.48281884 8.47133863 C-8.43445658 1.12499578 -7.19502484 0.04747804 0 0 Z M31.78466797 36.29052734 C31.78466797 55.10052734 31.78466797 73.91052734 31.78466797 93.29052734 C51.07434236 95.23197803 51.07434236 95.23197803 58.78466797 89.29052734 C65.79142359 81.89450753 65.12105368 73.5271359 65.09716797 63.91552734 C65.11328125 62.62646484 65.12939453 61.33740234 65.14599609 60.00927734 C65.14954653 53.09302078 64.97944883 47.49304101 61.78466797 41.29052734 C52.13250065 33.4481414 46.27892756 36.29052734 31.78466797 36.29052734 Z M31.78466797 129.29052734 C31.78466797 151.73052734 31.78466797 174.17052734 31.78466797 197.29052734 C48.19027118 198.58464812 48.19027118 198.58464812 64.15966797 193.60302734 C67.97685819 188.17087203 68.09309633 182.05381246 68.08544922 175.64599609 C68.09187691 174.43125359 68.09187691 174.43125359 68.09843445 173.19197083 C68.1041487 171.48679534 68.10469957 169.7815955 68.1003418 168.07641602 C68.09718951 165.49566084 68.12065013 162.91606246 68.14599609 160.33544922 C68.33722911 146.05334805 68.33722911 146.05334805 62.59716797 133.29052734 C53.71959532 126.9775868 41.92725736 129.29052734 31.78466797 129.29052734 Z " fill="#DA1E2A" transform="translate(751.21533203125,49.70947265625)"/>
<path d="M0 0 C1.8134644 1.72710895 3.47181974 3.519033 5.1171875 5.40625 C5.64183594 5.97859375 6.16648437 6.5509375 6.70703125 7.140625 C18.49279496 21.17558026 18.2467765 41.02787148 18.3671875 58.34375 C18.3813269 59.91745361 18.3813269 59.91745361 18.39575195 61.52294922 C18.39148193 62.50408691 18.38721191 63.48522461 18.3828125 64.49609375 C18.38055664 65.37128662 18.37830078 66.24647949 18.37597656 67.14819336 C18.1171875 69.40625 18.1171875 69.40625 16.1171875 72.40625 C13.51603194 72.69826724 11.15627598 72.8024835 8.5546875 72.76953125 C7.80759521 72.77002975 7.06050293 72.77052826 6.29077148 72.77104187 C4.71042218 72.76870023 3.13006923 72.75896631 1.54980469 72.74243164 C-0.87338501 72.71884178 -3.29547472 72.7218691 -5.71875 72.72851562 C-7.25261075 72.72293886 -8.78646685 72.71582899 -10.3203125 72.70703125 C-11.04742432 72.70794266 -11.77453613 72.70885406 -12.52368164 72.70979309 C-17.65178267 72.63727983 -17.65178267 72.63727983 -19.8828125 70.40625 C-20.1039651 67.97131479 -20.20798949 65.64108103 -20.2265625 63.203125 C-20.2411853 62.48771545 -20.25580811 61.77230591 -20.27087402 61.03521729 C-20.31743545 58.74228534 -20.35157015 56.44943877 -20.3828125 54.15625 C-20.42414078 51.15073007 -20.47796425 48.14580071 -20.5390625 45.140625 C-20.54697815 44.11373566 -20.54697815 44.11373566 -20.55505371 43.06610107 C-20.66348409 37.78150391 -21.32692752 33.33769343 -24.6953125 29.15625 C-29.69521241 25.15633007 -34.66843412 24.72552304 -40.8828125 25.40625 C-45.625806 26.92758754 -47.66928314 28.95189418 -50.12109375 33.296875 C-52.61128751 40.19279617 -52.03084098 47.83754808 -52.02807617 55.05175781 C-52.03143478 56.31282852 -52.0347934 57.57389923 -52.03825378 58.8731842 C-52.0470506 62.31761819 -52.0494301 65.7620273 -52.05006957 69.20647144 C-52.05078265 71.36362017 -52.05292188 73.52076267 -52.05556679 75.67790985 C-52.0648067 83.21838275 -52.06890347 90.75883803 -52.06811523 98.29931641 C-52.06751516 105.30374293 -52.07805658 112.30809227 -52.0938589 119.31249928 C-52.1069805 125.3458871 -52.11229718 131.37924982 -52.11165982 137.41265178 C-52.11140615 141.00729895 -52.11418477 144.60187749 -52.12483788 148.19651031 C-52.13641459 152.2121143 -52.13174389 156.22754786 -52.12573242 160.24316406 C-52.13135193 161.41756546 -52.13697144 162.59196686 -52.14276123 163.80195618 C-52.1102861 172.37472735 -51.85640402 181.61094232 -47.8828125 189.40625 C-39.95238062 192.27761327 -32.81452264 191.86298564 -24.765625 189.84375 C-21.72398306 187.52150055 -21.50066224 184.01356035 -20.8828125 180.40625 C-20.60395301 177.1052362 -20.55912351 173.81944804 -20.5390625 170.5078125 C-20.5244397 169.59164154 -20.50981689 168.67547058 -20.49475098 167.73153687 C-20.43283506 163.84183137 -20.39265421 159.9519796 -20.35107422 156.06201172 C-20.31745947 153.21043937 -20.27235999 150.3592109 -20.2265625 147.5078125 C-20.2212854 146.62453278 -20.2160083 145.74125305 -20.21057129 144.83120728 C-20.10852356 138.63196106 -20.10852356 138.63196106 -17.8828125 136.40625 C-15.32530797 136.2066803 -12.87843109 136.12638174 -10.3203125 136.140625 C-9.19967407 136.13775482 -9.19967407 136.13775482 -8.05639648 136.13482666 C-6.47607079 136.13346502 -4.89573392 136.13716 -3.31542969 136.14550781 C-0.89232328 136.156208 1.53004173 136.14561221 3.953125 136.1328125 C5.48698081 136.1341341 7.02083615 136.1366965 8.5546875 136.140625 C9.28179932 136.13657654 10.00891113 136.13252808 10.75805664 136.12835693 C15.88726389 136.17632639 15.88726389 136.17632639 18.1171875 138.40625 C18.37597656 141.37695312 18.37597656 141.37695312 18.3828125 145.1875 C18.38704224 146.20963089 18.38704224 146.20963089 18.39135742 147.25241089 C18.3956366 149.47056702 18.38303574 151.6881516 18.3671875 153.90625 C18.36408569 154.65722961 18.36098389 155.40820923 18.35778809 156.1819458 C18.25812767 176.6150685 18.02944767 196.96677698 3.6796875 213.15625 C2.8340625 213.89875 1.9884375 214.64125 1.1171875 215.40625 C0.62863281 215.88578125 0.14007813 216.3653125 -0.36328125 216.859375 C-10.28093092 226.18809061 -21.4169814 227.60868607 -34.47314453 227.64648438 C-36.48091565 227.65612091 -38.48854599 227.6872899 -40.49609375 227.71875 C-55.93704953 227.78020654 -66.48593968 224.07405833 -77.78125 213.61328125 C-91.85738858 198.83071936 -92.0472547 177.61967084 -92.01220703 158.47265625 C-92.01483551 156.659897 -92.01483551 156.659897 -92.01751709 154.81051636 C-92.02112595 151.54190054 -92.02033404 148.27332623 -92.017138 145.00471115 C-92.01457413 141.55465367 -92.016963 138.10459862 -92.01852417 134.65454102 C-92.02033425 128.86506669 -92.01797022 123.07560519 -92.01318359 117.28613281 C-92.00774323 110.62984851 -92.00950671 103.97359485 -92.01501 97.31731129 C-92.01957441 91.56229042 -92.0201755 85.80727868 -92.01757133 80.05225658 C-92.01602675 76.63258043 -92.01576407 73.21291859 -92.01910782 69.79324341 C-92.0216708 65.97542298 -92.01774282 62.15765995 -92.01220703 58.33984375 C-92.01423126 57.23397919 -92.01625549 56.12811462 -92.01834106 54.98873901 C-91.95849588 32.50938974 -91.95849588 32.50938974 -88.1953125 22.03125 C-87.9269458 21.26304932 -87.6585791 20.49484863 -87.38208008 19.70336914 C-85.34599955 14.13197193 -83.02478572 9.70415633 -78.8828125 5.40625 C-78.28339844 4.66246094 -77.68398437 3.91867188 -77.06640625 3.15234375 C-68.8072882 -6.36053036 -56.2999671 -9.95241975 -44.08203125 -11.41015625 C-29.40275644 -12.25255664 -11.56792096 -9.79193309 0 0 Z " fill="#DB1E2A" transform="translate(137.8828125,57.59375)"/>
<path d="M0 0 C0.72691764 0.00146656 1.45383528 0.00293312 2.20278072 0.00444412 C3.03708614 -0.00112503 3.87139156 -0.00669418 4.73097897 -0.0124321 C6.10642124 0.00139008 6.10642124 0.00139008 7.50965023 0.01549149 C8.47393948 0.01344711 9.43822872 0.01140274 10.43173885 0.00929642 C13.63034464 0.00627963 16.82843941 0.02479131 20.02698421 0.0438118 C22.2413333 0.04686771 24.4556843 0.04874511 26.67003536 0.04948807 C31.31472768 0.05409665 35.95924716 0.06854483 40.60388851 0.0906868 C46.57197736 0.11898605 52.53992996 0.12989925 58.50807953 0.1343689 C63.08125339 0.13851609 67.6543994 0.14832742 72.22755909 0.16024399 C74.4288978 0.16596033 76.63023921 0.17071449 78.83158207 0.17451096 C81.90140321 0.18134926 84.97111401 0.19496958 88.04090023 0.21080399 C89.41937885 0.21248077 89.41937885 0.21248077 90.82570553 0.21419144 C97.09589248 0.25725132 97.09589248 0.25725132 98.21057796 1.3719368 C98.29905539 3.89287756 98.32585098 6.38624573 98.30823421 8.90709305 C98.30681927 9.66034363 98.30540432 10.41359421 98.3039465 11.18967056 C98.29833172 13.6046324 98.28577679 16.01950281 98.27307796 18.4344368 C98.26806486 20.067899 98.26350163 21.70136266 98.25940609 23.33482742 C98.2483575 27.34723265 98.23108303 31.3595692 98.21057796 35.3719368 C95.52958743 36.71243206 93.47746591 36.491742 90.47571468 36.48546219 C89.27462063 36.48538666 88.07352657 36.48531113 86.83603573 36.48523331 C85.53393154 36.48007202 84.23182735 36.47491074 82.89026546 36.46959305 C81.54790964 36.46772818 80.20555313 36.4663046 78.86319637 36.46530533 C75.32862122 36.46148558 71.79408709 36.45165992 68.25952816 36.44060135 C64.65337343 36.43037557 61.04721187 36.42575045 57.44104671 36.42076492 C50.36418755 36.41056772 43.28744109 36.39099478 36.21057796 36.3719368 C36.21057796 55.1819368 36.21057796 73.9919368 36.21057796 93.3719368 C51.54337802 93.2532256 51.54337802 93.2532256 66.87586117 93.10167313 C68.79602211 93.09291248 70.71618862 93.08526754 72.63635921 93.07896805 C73.63582577 93.06362015 74.63529232 93.04827225 75.66504574 93.03245926 C76.61891171 93.03209671 77.57277767 93.03173416 78.55554867 93.03136063 C79.38383678 93.02469879 80.2121249 93.01803696 81.06551266 93.01117325 C83.73875609 93.46076739 84.61437417 94.2099406 86.21057796 96.3719368 C86.58289242 99.4188118 86.58289242 99.4188118 86.57385921 103.1219368 C86.57460697 104.10371902 86.57460697 104.10371902 86.57536983 105.10533524 C86.57303254 106.4872021 86.56332411 107.86907349 86.54675961 109.25084305 C86.52316086 111.36451204 86.52620116 113.47691948 86.53284359 115.5906868 C86.48983695 125.95304832 86.48983695 125.95304832 84.21057796 129.3719368 C82.14780331 129.73270035 82.14780331 129.73270035 79.57727718 129.71251297 C78.60298763 129.71215042 77.62869808 129.71178787 76.62488461 129.71141434 C75.59871029 129.69606644 74.57253597 129.68071854 73.51526546 129.66490555 C72.57368587 129.66188431 71.63210629 129.65886307 70.66199398 129.65575027 C67.13641087 129.64002498 63.61098369 129.59814114 60.08557796 129.5594368 C52.20682796 129.4975618 44.32807796 129.4356868 36.21057796 129.3719368 C36.21057796 151.8119368 36.21057796 174.2519368 36.21057796 197.3719368 C56.24074269 197.3323246 56.24074269 197.3323246 76.2708807 197.28184891 C78.77031061 197.27893003 81.26974099 197.2763814 83.76917171 197.27428055 C85.08115536 197.26916458 86.393139 197.26404861 87.74487972 197.25877762 C89.60239864 197.25859634 89.60239864 197.25859634 91.4974432 197.25841141 C93.11959995 197.25508049 93.11959995 197.25508049 94.77452755 197.25168228 C97.21057796 197.3719368 97.21057796 197.3719368 98.21057796 198.3719368 C98.31145008 200.88117833 98.35029829 203.36230064 98.34339046 205.8719368 C98.34434719 206.6228157 98.34530392 207.37369461 98.34628963 208.14732742 C98.34697135 209.73782306 98.34511768 211.32832147 98.34094906 212.9188118 C98.33560063 215.36158334 98.3408943 217.80417101 98.34729671 220.2469368 C98.34663593 221.78860387 98.34535477 223.33027083 98.34339046 224.8719368 C98.3454147 225.60734695 98.34743893 226.34275711 98.3495245 227.10045242 C98.32552957 232.25698519 98.32552957 232.25698519 97.21057796 233.3719368 C94.13603036 233.46726007 91.08398639 233.49745059 88.00916195 233.48546219 C86.56053768 233.48568123 86.56053768 233.48568123 85.08264828 233.48590469 C81.87396698 233.48520514 78.66534294 233.47741076 75.45667171 233.46959305 C73.23849679 233.46772902 71.02032145 233.46630505 68.80214596 233.46530533 C62.95117725 233.46147895 57.10023319 233.45164765 51.24927425 233.44060135 C45.28390492 233.43038979 39.31853163 233.42580826 33.35315609 233.42076492 C21.63895253 233.41002549 9.92476729 233.39294764 -1.78942204 233.3719368 C-3.36434888 230.57310155 -4.03958057 228.56555511 -4.04110432 225.35859966 C-4.04631981 224.56523817 -4.05153531 223.77187667 -4.05690885 222.95447391 C-4.0524474 222.08881732 -4.04798596 221.22316073 -4.04338932 220.33127213 C-4.0465093 219.40708829 -4.04962928 218.48290445 -4.05284381 217.53071505 C-4.06083569 214.4268619 -4.0544955 211.3232036 -4.0482111 208.21934891 C-4.05092041 205.99705261 -4.054481 203.77475722 -4.05883121 201.55246353 C-4.06796404 195.51134699 -4.0644074 189.47029862 -4.05807304 183.42918086 C-4.05301832 177.11514012 -4.05770297 170.80110532 -4.06084538 164.48706436 C-4.06471966 153.20418834 -4.05849529 141.92134701 -4.0483267 130.63847793 C-4.03938894 120.40435182 -4.04094496 110.17027107 -4.05016422 99.93614578 C-4.06086207 88.05507977 -4.06485421 76.17404132 -4.0589397 64.29296881 C-4.05581654 58.00234962 -4.05542017 51.71176169 -4.06201267 45.42114449 C-4.06777553 39.50900208 -4.06380869 33.59694563 -4.05222416 27.68481255 C-4.04957201 25.51073093 -4.05035206 23.33664211 -4.05474949 21.16256332 C-4.06018444 18.20348268 -4.0533958 15.24468055 -4.04338932 12.28561783 C-4.04785076 11.41773052 -4.05231221 10.54984321 -4.05690885 9.65565628 C-3.9987059 0.83114315 -3.9987059 0.83114315 0 0 Z " fill="#DA1E2A" transform="translate(879.7894220352173,49.6280632019043)"/>
<path d="M0 0 C0.92055679 0.00202423 1.84111359 0.00404846 2.78956604 0.00613403 C3.75370926 0.00438171 4.71785248 0.00262939 5.71121216 0.00082397 C8.91508252 -0.00359636 12.11889819 -0.00065591 15.32276917 0.00271606 C17.5385489 0.00204308 19.75432856 0.0010731 21.97010803 -0.00018311 C26.62070924 -0.00166033 31.27129128 0.00049525 35.92189026 0.00515747 C41.89784521 0.01085477 47.87375526 0.00757589 53.84970856 0.00158501 C58.4271631 -0.00201996 63.00460691 -0.00088232 67.58206177 0.0017128 C69.7861939 0.00238225 71.99032699 0.00155303 74.19445801 -0.00076675 C77.26915588 -0.00329222 80.34377994 0.00054581 83.41847229 0.00613403 C84.33902908 0.0041098 85.25958588 0.00208557 86.20803833 0 C92.48975688 0.02126628 92.48975688 0.02126628 93.60401917 1.13552856 C93.69249659 3.65646933 93.71929218 6.14983749 93.70167542 8.67068481 C93.70026047 9.42393539 93.69884552 10.17718597 93.6973877 10.95326233 C93.69177292 13.36822416 93.67921799 15.78309457 93.66651917 18.19802856 C93.66150606 19.83149077 93.65694283 21.46495442 93.65284729 23.09841919 C93.6417987 27.11082441 93.62452423 31.12316097 93.60401917 35.13552856 C90.92302863 36.47602383 88.87090711 36.25533377 85.86915588 36.24905396 C84.66806183 36.24897842 83.46696777 36.24890289 82.22947693 36.24882507 C80.92737274 36.24366379 79.62526855 36.2385025 78.28370667 36.23318481 C76.94135084 36.23131994 75.59899433 36.22989637 74.25663757 36.22889709 C70.72206242 36.22507735 67.18752829 36.21525169 63.65296936 36.20419312 C60.04681463 36.19396734 56.44065307 36.18934222 52.83448792 36.18435669 C45.75762875 36.17415949 38.68088229 36.15458654 31.60401917 36.13552856 C31.60401917 54.94552856 31.60401917 73.75552856 31.60401917 93.13552856 C47.44401917 93.13552856 63.28401917 93.13552856 79.60401917 93.13552856 C81.66303339 97.25355701 81.86067145 99.02929956 81.86964417 103.51052856 C81.87351135 105.35904419 81.87351135 105.35904419 81.87745667 107.24490356 C81.86972229 108.52880981 81.86198792 109.81271606 81.85401917 111.13552856 C81.86562073 113.06138794 81.86562073 113.06138794 81.87745667 115.02615356 C81.87487854 116.25849731 81.87230042 117.49084106 81.86964417 118.76052856 C81.86738831 119.88716919 81.86513245 121.01380981 81.86280823 122.17459106 C81.60401917 125.13552856 81.60401917 125.13552856 79.60401917 129.13552856 C63.76401917 129.13552856 47.92401917 129.13552856 31.60401917 129.13552856 C31.60401917 151.57552856 31.60401917 174.01552856 31.60401917 197.13552856 C52.06401917 197.13552856 72.52401917 197.13552856 93.60401917 197.13552856 C93.62464417 202.88990356 93.64526917 208.64427856 93.66651917 214.57302856 C93.67562317 216.39117065 93.68472717 218.20931274 93.69410706 220.08255005 C93.69702628 221.51557338 93.69957482 222.94859754 93.70167542 224.38162231 C93.70679138 225.13221924 93.71190735 225.88281616 93.71717834 226.65615845 C93.71748909 228.48300458 93.6663303 230.30974539 93.60401917 232.13552856 C91.67395672 234.06559101 88.77678787 233.26236082 86.20803833 233.27105713 C85.28748154 233.2690329 84.36692474 233.26700867 83.41847229 233.2649231 C81.97225746 233.26755157 81.97225746 233.26755157 80.49682617 233.27023315 C77.29295581 233.27465349 74.08914014 233.27171304 70.88526917 233.26834106 C68.66948943 233.26901405 66.45370977 233.26998403 64.2379303 233.27124023 C59.58732909 233.27271745 54.93674705 233.27056188 50.28614807 233.26589966 C44.31019312 233.26020236 38.33428307 233.26348124 32.35832977 233.26947212 C27.78087523 233.27307708 23.20343142 233.27193945 18.62597656 233.26934433 C16.42184443 233.26867488 14.21771134 233.2695041 12.01358032 233.27182388 C8.93888245 233.27434935 5.86425839 233.27051131 2.78956604 233.2649231 C1.86900925 233.26694733 0.94845245 233.26897156 0 233.27105713 C-6.28171855 233.24979084 -6.28171855 233.24979084 -7.39598083 232.13552856 C-7.4961923 229.16690457 -7.53036302 226.22146792 -7.52296448 223.25234985 C-7.52452447 222.3089004 -7.52608446 221.36545094 -7.52769172 220.39341211 C-7.53170607 217.20652396 -7.5285104 214.01968277 -7.52537537 210.83279419 C-7.52672921 208.55843579 -7.52850905 206.28407761 -7.53068542 204.00971985 C-7.53526172 197.81362309 -7.5334694 191.61754291 -7.53030634 185.42144585 C-7.52778374 178.95297067 -7.53011999 172.48449696 -7.5316925 166.01602173 C-7.53363138 154.45409496 -7.53051353 142.89217671 -7.52543317 131.33025128 C-7.52096512 120.83679178 -7.52174105 110.34334333 -7.52635193 99.84988403 C-7.53169758 87.67844005 -7.53369859 75.50700475 -7.53073967 63.33555937 C-7.52917643 56.88735405 -7.5289844 50.43915637 -7.53227615 43.99095154 C-7.53515365 37.9303187 -7.53318142 31.86970686 -7.5273819 25.80907631 C-7.52605364 23.57771655 -7.52644951 21.34635503 -7.52864456 19.11499596 C-7.53135352 16.08287544 -7.52797807 13.05082336 -7.52296448 10.01870728 C-7.5251952 9.12349318 -7.52742592 8.22827909 -7.52972424 7.30593729 C-7.50616945 0.02529614 -7.2634916 0.02459 0 0 Z " fill="#DA1E2A" transform="translate(385.39598083496094,49.864471435546875)"/>
<path d="M0 0 C12.87 0 25.74 0 39 0 C39.02258495 29.53840522 39.04049802 59.07680935 39.05106533 88.61522138 C39.05231611 92.0988683 39.05361042 95.58251521 39.05493164 99.06616211 C39.05519395 99.75972243 39.05545626 100.45328274 39.05572652 101.16786004 C39.06008327 112.41247668 39.06797085 123.65708824 39.0771528 134.90170186 C39.08648919 146.43122317 39.09198068 157.96074089 39.09408849 169.49026591 C39.09539604 175.96978763 39.09848465 182.44929781 39.10573006 188.92881584 C39.11248622 195.0198007 39.11461779 201.11076918 39.11310768 207.20175743 C39.11338419 209.44440551 39.11539169 211.68705409 39.11920547 213.92969894 C39.12413643 216.97719595 39.12300051 220.02463001 39.12025452 223.0721283 C39.12316736 223.97191546 39.1260802 224.87170262 39.12908131 225.79875606 C39.11412121 231.88587879 39.11412121 231.88587879 38 233 C25.46 233 12.92 233 0 233 C0 156.11 0 79.22 0 0 Z " fill="#DA1E2A" transform="translate(681,50)"/>
<path d="M0 0 C12.87 0 25.74 0 39 0 C39.04517849 29.39398384 39.08100068 58.78796237 39.10213066 88.18197378 C39.10463218 91.6493107 39.10722082 95.11664756 39.10986328 98.58398438 C39.1103879 99.27429177 39.11091252 99.96459916 39.11145304 100.67582496 C39.12016438 111.86480873 39.13593834 123.05377204 39.15430559 134.24274366 C39.17298441 145.71689956 39.18396266 157.19103882 39.18817699 168.66521037 C39.19079104 175.11292126 39.19696168 181.56058567 39.21146011 188.00828171 C39.2249821 194.07055561 39.22923361 200.13276364 39.22621536 206.19505119 C39.22676795 208.42599406 39.23077729 210.65693901 39.23841095 212.88786888 C39.24828803 215.92194083 39.24599552 218.95576047 39.24050903 221.98983765 C39.24633472 222.88282102 39.2521604 223.77580439 39.25816262 224.69584787 C39.22824242 230.77175758 39.22824242 230.77175758 37 233 C24.79 233 12.58 233 0 233 C0 156.11 0 79.22 0 0 Z " fill="#DC1E2A" transform="translate(175,50)"/>
</svg>
