<?xml version="1.0" encoding="UTF-8"?>
<svg version="1.1" xmlns="http://www.w3.org/2000/svg" width="590" height="175">
<path d="M0 0 C1.34771484 -0.00386719 1.34771484 -0.00386719 2.72265625 -0.0078125 C4.9375 0.125 4.9375 0.125 5.9375 1.125 C6.09753488 3.78926685 6.19692889 6.43060428 6.25390625 9.09765625 C6.27468735 9.89529892 6.29546844 10.69294159 6.31687927 11.51475525 C6.38246158 14.07224611 6.44129967 16.6298428 6.5 19.1875 C6.54317699 20.91732882 6.58679101 22.64714679 6.63085938 24.37695312 C6.73815172 28.6261926 6.83939426 32.8755389 6.9375 37.125 C7.31036133 36.31869141 7.68322266 35.51238281 8.06738281 34.68164062 C9.46793769 31.6544947 10.86959526 28.62786429 12.27197266 25.6015625 C12.87559687 24.29837807 13.47879683 22.99499703 14.08154297 21.69140625 C16.02124264 17.4967655 17.97295224 13.30806748 19.9375 9.125 C20.34806641 8.2484375 20.75863281 7.371875 21.18164062 6.46875 C23.69495885 1.24627058 23.69495885 1.24627058 25.9375 0.125 C27.8125 -0.04296875 27.8125 -0.04296875 29.9375 -0.0625 C30.989375 -0.08376953 30.989375 -0.08376953 32.0625 -0.10546875 C33.9375 0.125 33.9375 0.125 35.9375 2.125 C36.25279552 4.69572696 36.45267626 7.17672657 36.5703125 9.7578125 C36.61187469 10.50964813 36.65343689 11.26148376 36.69625854 12.03610229 C36.82713878 14.44035947 36.94496339 16.84505712 37.0625 19.25 C37.14888137 20.87895199 37.23611032 22.50785927 37.32421875 24.13671875 C37.53848883 28.13235992 37.74105165 32.12844457 37.9375 36.125 C42.3163026 27.74653217 45.88179428 19.12587931 49.36328125 10.34375 C49.78222656 9.3125 50.20117188 8.28125 50.6328125 7.21875 C51.00422363 6.28740234 51.37563477 5.35605469 51.75830078 4.39648438 C52.9375 2.125 52.9375 2.125 55.9375 0.125 C58.19921875 -0.0703125 58.19921875 -0.0703125 60.625 0 C61.83736328 0.02707031 61.83736328 0.02707031 63.07421875 0.0546875 C63.99654297 0.08949219 63.99654297 0.08949219 64.9375 0.125 C66.25968994 4.09156982 65.25592333 5.31834699 63.578125 9.1015625 C63.31773941 9.69615768 63.05735382 10.29075287 62.78907776 10.90336609 C61.9311302 12.85647177 61.05961487 14.80318409 60.1875 16.75 C59.59252752 18.09493572 58.99837746 19.44023556 58.4050293 20.78588867 C57.18833986 23.54234955 55.96653507 26.29646671 54.74169922 29.04931641 C53.03172271 32.90062001 51.35779346 36.76635018 49.69140625 40.63671875 C49.19415039 41.78640137 48.69689453 42.93608398 48.18457031 44.12060547 C47.24129315 46.30157272 46.30172929 48.48415042 45.36621094 50.66845703 C44.94243164 51.64024902 44.51865234 52.61204102 44.08203125 53.61328125 C43.71440674 54.46446533 43.34678223 55.31564941 42.96801758 56.19262695 C41.9375 58.125 41.9375 58.125 39.9375 59.125 C38.10712713 59.24645993 36.27185867 59.30043185 34.4375 59.3125 C33.4578125 59.32667969 32.478125 59.34085938 31.46875 59.35546875 C28.9375 59.125 28.9375 59.125 26.9375 57.125 C26.52685547 54.05224609 26.52685547 54.05224609 26.3046875 50.1484375 C26.26312531 49.46319 26.22156311 48.7779425 26.17874146 48.07192993 C26.04791466 45.88169649 25.93006252 43.69098158 25.8125 41.5 C25.72611346 40.01557511 25.63888433 38.531199 25.55078125 37.046875 C25.33657167 33.40676542 25.13399252 29.76611375 24.9375 26.125 C19.69999114 35.91463451 14.51012316 45.65795701 10.09375 55.8515625 C8.9375 58.125 8.9375 58.125 6.9375 59.125 C5.10621229 59.22108608 3.27130041 59.25482579 1.4375 59.25 C0.4578125 59.25257812 -0.521875 59.25515625 -1.53125 59.2578125 C-4.0625 59.125 -4.0625 59.125 -6.0625 58.125 C-6.3925 39.315 -6.7225 20.505 -7.0625 1.125 C-4.56110398 -0.12569801 -2.78857309 -0.00802467 0 0 Z " fill="#D32025" transform="translate(300.0625,52.875)"/>
<path d="M0 0 C0.680625 -0.00257812 1.36125 -0.00515625 2.0625 -0.0078125 C4 0.125 4 0.125 7 1.125 C8.30273438 3.59008789 8.30273438 3.59008789 9.59375 6.84765625 C10.06683594 8.02650391 10.53992188 9.20535156 11.02734375 10.41992188 C11.51841841 11.67570726 12.00930244 12.93156721 12.5 14.1875 C13.22896484 16.0118457 13.22896484 16.0118457 13.97265625 17.87304688 C16.38541019 23.93122876 18.73966871 30.00836025 21 36.125 C22.5692423 30.19249864 23.98819112 24.24877292 25.2421875 18.2421875 C25.45979736 17.20650635 25.67740723 16.1708252 25.90161133 15.10375977 C26.34094148 12.99896747 26.7731169 10.89266864 27.19799805 8.78491211 C27.40207275 7.81046143 27.60614746 6.83601074 27.81640625 5.83203125 C27.99631104 4.9500708 28.17621582 4.06811035 28.36157227 3.15942383 C28.57225342 2.48806396 28.78293457 1.8167041 29 1.125 C31.3796612 -0.0648306 32.91485735 -0.00849966 35.5625 0 C36.77099609 -0.00386719 36.77099609 -0.00386719 38.00390625 -0.0078125 C40 0.125 40 0.125 41 1.125 C40.84064585 8.29958469 39.26044179 15.36160998 37.75 22.34765625 C37.53182617 23.37434921 37.31365234 24.40104218 37.08886719 25.45884705 C36.63085369 27.60812984 36.17020795 29.75685327 35.70703125 31.9050293 C34.99558152 35.20801329 34.294093 38.51300451 33.59375 41.81835938 C33.14641698 43.91158315 32.69852084 46.00468667 32.25 48.09765625 C32.03956055 49.08919205 31.82912109 50.08072784 31.61230469 51.10231018 C31.41540039 52.01093307 31.21849609 52.91955597 31.015625 53.85571289 C30.84321289 54.65828018 30.67080078 55.46084747 30.49316406 56.28773499 C30 58.125 30 58.125 29 59.125 C27.189715 59.22379565 25.37547273 59.25471514 23.5625 59.25 C22.57378906 59.25257812 21.58507812 59.25515625 20.56640625 59.2578125 C18 59.125 18 59.125 16 58.125 C14.83005338 55.48043711 13.76412338 52.85402392 12.7421875 50.15234375 C12.43427277 49.35470108 12.12635803 48.55705841 11.80911255 47.73524475 C10.82449727 45.18013607 9.8496662 42.62141826 8.875 40.0625 C8.21027516 38.33243635 7.54491866 36.60261526 6.87890625 34.87304688 C5.24525379 30.62648062 3.62036826 26.3766519 2 22.125 C0.19185431 27.3337816 -1.42108543 32.47371353 -2.5703125 37.875 C-2.82683594 39.05964844 -3.08335937 40.24429688 -3.34765625 41.46484375 C-3.60417969 42.67269531 -3.86070312 43.88054687 -4.125 45.125 C-4.64511775 47.56321053 -5.1683762 50.00075397 -5.6953125 52.4375 C-5.92234863 53.50613281 -6.14938477 54.57476562 -6.38330078 55.67578125 C-7 58.125 -7 58.125 -8 59.125 C-9.85287502 59.19726502 -11.70833878 59.2088122 -13.5625 59.1875 C-14.57441406 59.17847656 -15.58632812 59.16945312 -16.62890625 59.16015625 C-17.41136719 59.14855469 -18.19382813 59.13695312 -19 59.125 C-18.44305333 52.27010017 -17.4317803 45.64252849 -16.00390625 38.91796875 C-15.81030014 37.98954666 -15.61669403 37.06112457 -15.41722107 36.10456848 C-15.01043429 34.16040412 -14.60106709 32.216778 -14.18920898 30.27368164 C-13.56078559 27.30439944 -12.94294429 24.33304978 -12.32617188 21.36132812 C-11.92771021 19.46340995 -11.52864293 17.56561879 -11.12890625 15.66796875 C-10.94550186 14.78457321 -10.76209747 13.90117767 -10.57313538 12.99101257 C-8.7277403 4.34646159 -8.7277403 4.34646159 -7 1.125 C-4.32356043 0.23285348 -2.74615622 -0.01040211 0 0 Z " fill="#D22026" transform="translate(195,52.875)"/>
<path d="M0 0 C1.01255859 -0.01224609 2.02511719 -0.02449219 3.06835938 -0.03710938 C17.75676557 -0.06552022 17.75676557 -0.06552022 23.9375 4.3125 C26.41925386 7.88002117 27.35456778 10.89878413 26.9375 15.1875 C25.44467934 19.68175903 23.91153482 22.53814345 19.9375 25.1875 C20.205625 25.72375 20.47375 26.26 20.75 26.8125 C21.141875 27.59625 21.53375 28.38 21.9375 29.1875 C22.47375 30.095 23.01 31.0025 23.5625 31.9375 C25.68306896 36.9497539 25.80174878 40.73510177 24.0234375 45.78125 C21.59401783 51.11029959 19.42104592 54.65663265 13.9375 57.1875 C5.90275118 59.50698097 -1.80498139 59.41911433 -10.125 59.3125 C-11.48111315 59.30244631 -12.83723355 59.2933247 -14.19335938 59.28515625 C-17.483261 59.26174058 -20.77278438 59.22894423 -24.0625 59.1875 C-25.23664211 55.66507368 -24.826017 54.20014998 -24.0234375 50.61328125 C-23.77489014 49.48140381 -23.52634277 48.34952637 -23.27026367 47.18334961 C-22.99545166 45.96784424 -22.72063965 44.75233887 -22.4375 43.5 C-21.87816499 40.96630936 -21.31958552 38.43245182 -20.76171875 35.8984375 C-20.47731934 34.61549805 -20.19291992 33.33255859 -19.89990234 32.01074219 C-18.41016229 25.20918849 -17.01920138 18.38724143 -15.62451172 11.56567383 C-15.43260254 10.6352124 -15.24069336 9.70475098 -15.04296875 8.74609375 C-14.87692139 7.93454834 -14.71087402 7.12300293 -14.53979492 6.28686523 C-14.0625 4.1875 -14.0625 4.1875 -13.0625 1.1875 C-9.15977964 -0.76386018 -4.29123118 0.0026604 0 0 Z M-2.0625 10.1875 C-2.3925 11.21875 -2.7225 12.25 -3.0625 13.3125 C-3.248125 13.89257812 -3.43375 14.47265625 -3.625 15.0703125 C-4.18921356 17.80070313 -4.12549513 20.40784007 -4.0625 23.1875 C-1.97981407 23.26876087 0.10378658 23.32680839 2.1875 23.375 C3.34765625 23.40980469 4.5078125 23.44460937 5.703125 23.48046875 C9.20521833 23.16325015 10.52742715 22.7011082 12.9375 20.1875 C14.01517129 16.72774142 14.01517129 16.72774142 13.9375 13.1875 C12.93241952 11.34189629 12.93241952 11.34189629 10.9375 10.1875 C7.73611932 9.8238838 7.73611932 9.8238838 4.25 10 C3.07050781 10.02707031 1.89101563 10.05414063 0.67578125 10.08203125 C-0.67966797 10.13423828 -0.67966797 10.13423828 -2.0625 10.1875 Z M-7.0625 33.1875 C-7.56685694 35.1238704 -8.06583874 37.06164146 -8.5625 39 C-8.8409375 40.07894531 -9.119375 41.15789062 -9.40625 42.26953125 C-10.17220948 45.17683975 -10.17220948 45.17683975 -10.0625 48.1875 C-7.33166098 48.32298815 -4.60758193 48.42179855 -1.875 48.5 C-1.10607422 48.54189453 -0.33714844 48.58378906 0.45507812 48.62695312 C4.71855542 48.71844405 6.42894679 48.56776359 9.95703125 45.9296875 C12.8863252 41.87374203 12.57775742 40.06946282 11.9375 35.1875 C8.14586973 32.65974649 5.12875969 32.96306965 0.75 33.0625 C-0.37438477 33.07603516 -0.37438477 33.07603516 -1.52148438 33.08984375 C-3.36862654 33.11337422 -5.21560412 33.14924439 -7.0625 33.1875 Z " fill="#D51F24" transform="translate(413.0625,52.8125)"/>
<path d="M0 0 C1.77189102 -0.044858 3.54611543 0.01392434 5.31640625 0.1015625 C5.97640625 0.7615625 6.63640625 1.4215625 7.31640625 2.1015625 C7.109375 4.01171875 7.109375 4.01171875 6.50390625 6.1640625 C6.21580078 7.23333984 6.21580078 7.23333984 5.921875 8.32421875 C5.31640625 10.1015625 5.31640625 10.1015625 4.31640625 11.1015625 C2.38973118 11.18904457 0.45988764 11.20853584 -1.46875 11.19921875 C-2.63857422 11.19599609 -3.80839844 11.19277344 -5.01367188 11.18945312 C-6.24537109 11.18107422 -7.47707031 11.17269531 -8.74609375 11.1640625 C-10.59944336 11.15729492 -10.59944336 11.15729492 -12.49023438 11.15039062 C-15.55470788 11.13855868 -18.61915668 11.12062258 -21.68359375 11.1015625 C-22.34359375 15.0615625 -23.00359375 19.0215625 -23.68359375 23.1015625 C-16.75359375 23.1015625 -9.82359375 23.1015625 -2.68359375 23.1015625 C-1.68047022 27.11405663 -1.71977703 29.15867592 -2.68359375 33.1015625 C-5.18856379 34.35404752 -6.89212649 34.21530656 -9.69140625 34.19921875 C-10.67753906 34.19599609 -11.66367187 34.19277344 -12.6796875 34.18945312 C-13.71222656 34.18107422 -14.74476563 34.17269531 -15.80859375 34.1640625 C-17.36900391 34.15729492 -17.36900391 34.15729492 -18.9609375 34.15039062 C-21.53518062 34.13858217 -24.10939428 34.12064635 -26.68359375 34.1015625 C-27.34359375 38.3915625 -28.00359375 42.6815625 -28.68359375 47.1015625 C-15.81359375 47.5965625 -15.81359375 47.5965625 -2.68359375 48.1015625 C-3.68359375 55.1015625 -3.68359375 55.1015625 -5.68359375 59.1015625 C-18.22359375 59.1015625 -30.76359375 59.1015625 -43.68359375 59.1015625 C-44.80976154 55.72305914 -44.53672497 54.45758505 -43.80322266 51.03515625 C-43.58614655 50.00398682 -43.36907043 48.97281738 -43.14541626 47.91040039 C-42.90278046 46.79785889 -42.66014465 45.68531738 -42.41015625 44.5390625 C-42.0453566 42.82481079 -42.0453566 42.82481079 -41.67318726 41.07592773 C-40.89227572 37.41620331 -40.10034127 33.7589562 -39.30859375 30.1015625 C-38.78187502 27.63556118 -38.25582496 25.16941694 -37.73046875 22.703125 C-37.22845534 20.35664437 -36.72587032 18.01028594 -36.22265625 15.6640625 C-35.86477524 13.99525024 -35.86477524 13.99525024 -35.49966431 12.29272461 C-35.27628387 11.26155518 -35.05290344 10.23038574 -34.82275391 9.16796875 C-34.62654449 8.25990479 -34.43033508 7.35184082 -34.22817993 6.41625977 C-33.68359375 4.1015625 -33.68359375 4.1015625 -32.68359375 1.1015625 C-28.55767659 0.95738547 -24.43170042 0.81504201 -20.30566406 0.67431641 C-18.90525654 0.62630428 -17.50486538 0.57781179 -16.10449219 0.52880859 C-10.73669628 0.34120374 -5.36715198 0.20312366 0 0 Z " fill="#D32024" transform="translate(282.68359375,52.8984375)"/>
<path d="M0 0 C0.74472061 -0.00095673 1.48944122 -0.00191345 2.25672913 -0.00289917 C3.83285608 -0.00358007 5.40898584 -0.00173205 6.98510742 0.00244141 C9.3970369 0.00778344 11.80877952 0.0024973 14.22070312 -0.00390625 C15.75130249 -0.0032453 17.28190175 -0.0019638 18.8125 0 C19.53445053 -0.00202423 20.25640106 -0.00404846 21.00022888 -0.00613403 C24.09869883 0.00835637 26.50965213 0.14514446 29.47265625 1.1328125 C29.33216107 2.61249574 29.18510799 4.09155766 29.03515625 5.5703125 C28.95394531 6.39402344 28.87273437 7.21773437 28.7890625 8.06640625 C28.47265625 10.1328125 28.47265625 10.1328125 27.47265625 11.1328125 C25.54598118 11.22029457 23.61613764 11.23978584 21.6875 11.23046875 C20.51767578 11.22724609 19.34785156 11.22402344 18.14257812 11.22070312 C16.91087891 11.21232422 15.67917969 11.20394531 14.41015625 11.1953125 C12.55680664 11.18854492 12.55680664 11.18854492 10.66601562 11.18164062 C7.60151508 11.16980858 4.53710904 11.15332423 1.47265625 11.1328125 C0.81265625 14.7628125 0.15265625 18.3928125 -0.52734375 22.1328125 C6.40265625 22.4628125 13.33265625 22.7928125 20.47265625 23.1328125 C21.57552501 27.54428756 21.27833356 29.07003855 19.47265625 33.1328125 C16.6485386 34.07418505 14.94347593 34.25006632 12.0234375 34.23046875 C11.17587891 34.22724609 10.32832031 34.22402344 9.45507812 34.22070312 C8.57400391 34.21232422 7.69292969 34.20394531 6.78515625 34.1953125 C5.89248047 34.19080078 4.99980469 34.18628906 4.08007812 34.18164062 C1.87753638 34.16986233 -0.32486974 34.15341414 -2.52734375 34.1328125 C-4.15699849 38.7889689 -5.31938708 43.30098584 -6.52734375 48.1328125 C2.05265625 48.1328125 10.63265625 48.1328125 19.47265625 48.1328125 C20.79608083 52.10308624 19.83904879 54.24938108 18.47265625 58.1328125 C15.2466208 59.74583023 11.72555587 59.25334849 8.18359375 59.23046875 C6.9559581 59.22834633 6.9559581 59.22834633 5.70352173 59.22618103 C3.084863 59.2205754 0.46628921 59.20802198 -2.15234375 59.1953125 C-3.92578002 59.19029822 -5.69921762 59.18573519 -7.47265625 59.18164062 C-11.82425157 59.17060414 -16.17578325 59.15333575 -20.52734375 59.1328125 C-21.57065232 55.89386101 -21.45210041 53.68065439 -20.75463867 50.36767578 C-20.46389717 48.95568405 -20.46389717 48.95568405 -20.1672821 47.51516724 C-19.84084465 45.99945633 -19.84084465 45.99945633 -19.5078125 44.453125 C-19.28918045 43.40760468 -19.0705484 42.36208435 -18.84529114 41.28488159 C-18.38105142 39.07332768 -17.91257281 36.86265997 -17.44018555 34.65283203 C-16.71949854 31.27959963 -16.01194195 27.90382294 -15.30664062 24.52734375 C-14.85363684 22.3774413 -14.39988522 20.22769626 -13.9453125 18.078125 C-13.73376022 17.07169952 -13.52220795 16.06527405 -13.304245 15.02835083 C-11.1993812 5.21628927 -11.1993812 5.21628927 -9.52734375 1.1328125 C-6.48905791 -0.38633042 -3.33197858 -0.0093162 0 0 Z " fill="#CD2025" transform="translate(465.52734375,52.8671875)"/>
<path d="M0 0 C2.55084895 2.05934391 4.34100731 4.05838596 6.1640625 6.79296875 C6.1640625 8.11296875 6.1640625 9.43296875 6.1640625 10.79296875 C2.8640625 12.44296875 -0.4359375 14.09296875 -3.8359375 15.79296875 C-5.07291667 14.26302083 -6.30989583 12.73307292 -7.546875 11.203125 C-9.36549506 9.21366487 -10.54565278 8.82190236 -13.2265625 8.5546875 C-17.66598672 8.43945654 -21.06163175 8.47751085 -25.2109375 10.16796875 C-30.37088074 15.32791199 -33.63088795 22.35424916 -33.96875 29.66796875 C-33.96617188 30.69921875 -33.96359375 31.73046875 -33.9609375 32.79296875 C-33.96351562 33.82421875 -33.96609375 34.85546875 -33.96875 35.91796875 C-33.85457421 38.38953884 -33.54944406 40.43726455 -32.8359375 42.79296875 C-28.1565281 44.09459757 -23.65247081 44.59202497 -18.8359375 43.79296875 C-14.86933513 41.50147634 -12.35618418 38.57333877 -9.8359375 34.79296875 C-5.87772891 35.35842712 -3.1700322 36.60199223 0.1640625 38.79296875 C-0.62241173 45.06260835 -4.27495671 48.66977844 -8.8359375 52.79296875 C-11.43776657 54.40288295 -13.84762936 55.18760246 -16.8359375 55.79296875 C-17.99416016 56.03660156 -17.99416016 56.03660156 -19.17578125 56.28515625 C-26.3548166 57.39660248 -33.44142923 56.40109154 -39.7578125 52.65234375 C-44.15294725 49.21456509 -46.73589495 45.20709123 -47.8359375 39.79296875 C-48.94986945 28.76504247 -47.09407171 17.96925313 -40.74609375 8.76171875 C-30.64490705 -2.97983161 -14.13519952 -9.29314181 0 0 Z " fill="#D02026" transform="translate(143.8359375,56.20703125)"/>
<path d="M0 0 C0.91007812 0.00902344 1.82015625 0.01804688 2.7578125 0.02734375 C3.80582031 0.04474609 3.80582031 0.04474609 4.875 0.0625 C5.22486824 6.5837673 3.90487685 12.51762193 2.50390625 18.8671875 C2.26212143 19.98690948 2.02033661 21.10663147 1.77122498 22.26028442 C1.26098482 24.61599953 0.74724777 26.97095961 0.23022461 29.32519531 C-0.56396555 32.94417825 -1.34630644 36.56557408 -2.12695312 40.1875 C-2.62430757 42.47671305 -3.12233083 44.76578091 -3.62109375 47.0546875 C-3.85654404 48.14312958 -4.09199432 49.23157166 -4.33457947 50.35299683 C-4.55473221 51.3513858 -4.77488495 52.34977478 -5.00170898 53.37841797 C-5.19490219 54.26109344 -5.3880954 55.14376892 -5.58714294 56.05319214 C-6.125 58.0625 -6.125 58.0625 -7.125 59.0625 C-8.97787502 59.13476502 -10.83333878 59.1463122 -12.6875 59.125 C-13.69941406 59.11597656 -14.71132813 59.10695312 -15.75390625 59.09765625 C-16.92759766 59.08025391 -16.92759766 59.08025391 -18.125 59.0625 C-19.16830857 55.82354851 -19.04975666 53.61034189 -18.35229492 50.29736328 C-18.06155342 48.88537155 -18.06155342 48.88537155 -17.76493835 47.44485474 C-17.4385009 45.92914383 -17.4385009 45.92914383 -17.10546875 44.3828125 C-16.8868367 43.33729218 -16.66820465 42.29177185 -16.44294739 41.21456909 C-15.97870767 39.00301518 -15.51022906 36.79234747 -15.0378418 34.58251953 C-14.31715479 31.20928713 -13.6095982 27.83351044 -12.90429688 24.45703125 C-12.45129309 22.3071288 -11.99754147 20.15738376 -11.54296875 18.0078125 C-11.33141647 17.00138702 -11.1198642 15.99496155 -10.90190125 14.95803833 C-8.79703745 5.14597677 -8.79703745 5.14597677 -7.125 1.0625 C-4.60024538 -0.19987731 -2.81299534 -0.03606404 0 0 Z " fill="#D41F23" transform="translate(381.125,52.9375)"/>
<path d="M0 0 C1.56702603 4.96872615 0.37184092 9.11373979 -0.765625 14.03515625 C-0.95968933 14.90965927 -1.15375366 15.78416229 -1.35369873 16.68516541 C-1.97644596 19.47980034 -2.61317843 22.27104255 -3.25 25.0625 C-3.66364517 26.91321393 -4.07641448 28.76412386 -4.48828125 30.61523438 C-10.49414419 57.49414419 -10.49414419 57.49414419 -12 59 C-15.66655195 59.14300125 -19.33144219 59.04216733 -23 59 C-22.47304088 51.7548939 -21.51554356 44.76269651 -20.00390625 37.66015625 C-19.71349709 36.26608803 -19.71349709 36.26608803 -19.41722107 34.84385681 C-19.01092624 32.90136919 -18.60156037 30.95952151 -18.18920898 29.01831055 C-17.55925811 26.04720995 -16.94210489 23.07364401 -16.32617188 20.09960938 C-15.92783928 18.20296608 -15.52877688 16.30647588 -15.12890625 14.41015625 C-14.94550186 13.52473648 -14.76209747 12.63931671 -14.57313538 11.72706604 C-14.30792336 10.48943764 -14.30792336 10.48943764 -14.03735352 9.22680664 C-13.88492691 8.50497696 -13.73250031 7.78314728 -13.57545471 7.03944397 C-12.94563134 4.80731441 -12.22829529 2.97100508 -11 1 C-7.31912046 0.01843212 -3.79527761 -0.11162581 0 0 Z " fill="#D12026" transform="translate(173,53)"/>
<path d="M0 0 C0.99966797 -0.00128906 1.99933594 -0.00257812 3.02929688 -0.00390625 C4.07794922 -0.00003906 5.12660156 0.00382812 6.20703125 0.0078125 C7.75100586 0.00201172 7.75100586 0.00201172 9.32617188 -0.00390625 C14.6649014 0.00293389 19.76098112 0.19564515 25.01953125 1.1328125 C25.01953125 1.4628125 25.01953125 1.7928125 25.01953125 2.1328125 C22.04953125 2.1328125 19.07953125 2.1328125 16.01953125 2.1328125 C15.68953125 3.1228125 15.35953125 4.1128125 15.01953125 5.1328125 C12.95703125 5.8203125 12.95703125 5.8203125 11.01953125 6.1328125 C13.32953125 6.4628125 15.63953125 6.7928125 18.01953125 7.1328125 C18.51453125 9.1128125 18.51453125 9.1128125 19.01953125 11.1328125 C14.06953125 10.8028125 9.11953125 10.4728125 4.01953125 10.1328125 C3.35953125 14.4228125 2.69953125 18.7128125 2.01953125 23.1328125 C1.02953125 23.1328125 0.03953125 23.1328125 -0.98046875 23.1328125 C-2.04803209 26.79776811 -2.04803209 26.79776811 -0.88671875 30.3203125 C0.36829052 34.21516886 -0.69544045 37.1766613 -1.85546875 40.9453125 C-2.90734375 44.503125 -2.90734375 44.503125 -3.98046875 48.1328125 C2.28953125 47.8028125 8.55953125 47.4728125 15.01953125 47.1328125 C14.35953125 48.1228125 13.69953125 49.1128125 13.01953125 50.1328125 C10.28861774 50.3824281 7.80501512 50.45944881 5.08203125 50.3828125 C3.98858398 50.37507813 3.98858398 50.37507813 2.87304688 50.3671875 C-0.32066684 50.32035027 -2.93354547 50.14845359 -5.98046875 49.1328125 C-5.90828125 48.19179687 -5.83609375 47.25078125 -5.76171875 46.28125 C-5.66890625 45.03601563 -5.57609375 43.79078125 -5.48046875 42.5078125 C-5.38765625 41.27804688 -5.29484375 40.04828125 -5.19921875 38.78125 C-5.00562806 35.55243393 -4.94067536 32.36602575 -4.98046875 29.1328125 C-5.57859375 29.6484375 -6.17671875 30.1640625 -6.79296875 30.6953125 C-7.51484375 31.1696875 -8.23671875 31.6440625 -8.98046875 32.1328125 C-9.97046875 31.8028125 -10.96046875 31.4728125 -11.98046875 31.1328125 C-11.96886719 31.77089844 -11.95726562 32.40898438 -11.9453125 33.06640625 C-11.93628906 33.89269531 -11.92726563 34.71898437 -11.91796875 35.5703125 C-11.90056641 36.80587891 -11.90056641 36.80587891 -11.8828125 38.06640625 C-11.98046875 40.1328125 -11.98046875 40.1328125 -12.98046875 41.1328125 C-13.21121957 42.48028334 -13.39199938 43.83658815 -13.54296875 45.1953125 C-13.68734375 46.4946875 -13.83171875 47.7940625 -13.98046875 49.1328125 C-14.64046875 49.1328125 -15.30046875 49.1328125 -15.98046875 49.1328125 C-15.98046875 52.1028125 -15.98046875 55.0728125 -15.98046875 58.1328125 C-7.07046875 58.1328125 1.83953125 58.1328125 11.01953125 58.1328125 C11.01953125 58.4628125 11.01953125 58.7928125 11.01953125 59.1328125 C1.44953125 59.1328125 -8.12046875 59.1328125 -17.98046875 59.1328125 C-19.15461086 55.61038618 -18.74398575 54.14546248 -17.94140625 50.55859375 C-17.69285889 49.42671631 -17.44431152 48.29483887 -17.18823242 47.12866211 C-16.91342041 45.91315674 -16.6386084 44.69765137 -16.35546875 43.4453125 C-15.79613374 40.91162186 -15.23755427 38.37776432 -14.6796875 35.84375 C-14.39528809 34.56081055 -14.11088867 33.27787109 -13.81787109 31.95605469 C-12.32813104 25.15450099 -10.93717013 18.33255393 -9.54248047 11.51098633 C-9.35057129 10.5805249 -9.15866211 9.65006348 -8.9609375 8.69140625 C-8.79489014 7.87986084 -8.62884277 7.06831543 -8.45776367 6.23217773 C-7.98046875 4.1328125 -7.98046875 4.1328125 -6.98046875 1.1328125 C-4.48735245 -0.11374565 -2.78701564 0.00345998 0 0 Z " fill="#CC2328" transform="translate(406.98046875,52.8671875)"/>
<path d="M0 0 C0.99 0 1.98 0 3 0 C3 0.66 3 1.32 3 2 C5.38564077 1.42415568 7.66682784 0.77772405 10 0 C10 1.65 10 3.3 10 5 C9.34 5 8.68 5 8 5 C8.02964844 6.09828125 8.05929687 7.1965625 8.08984375 8.328125 C8.08869466 13.54498075 7.34104323 18.60075132 6.5625 23.75 C6.42779297 24.68199219 6.29308594 25.61398438 6.15429688 26.57421875 C5.58324967 30.45733972 4.95354336 34.18582655 4 38 C0.37 38 -3.26 38 -7 38 C-6.67 34.7 -6.34 31.4 -6 28 C-5.34 28 -4.68 28 -4 28 C-4 24.37 -4 20.74 -4 17 C-3.34 17 -2.68 17 -2 17 C-2.02320313 16.35933594 -2.04640625 15.71867187 -2.0703125 15.05859375 C-2.18440863 9.59012904 -1.79791904 5.16901723 0 0 Z " fill="#D51F24" transform="translate(371,73)"/>
<path d="M0 0 C0.33 0 0.66 0 1 0 C1.2236337 1.41433206 1.42826476 2.83167618 1.625 4.25 C1.74101562 5.03890625 1.85703125 5.8278125 1.9765625 6.640625 C2.00319395 9.32152459 1.36592084 10.72694089 0 13 C2.97 13.495 2.97 13.495 6 14 C6 13.34 6 12.68 6 12 C7.32 11.67 8.64 11.34 10 11 C9.58516138 17.53370832 8.49638554 23.70419513 7 30.0625 C6.73268066 31.20609985 6.73268066 31.20609985 6.45996094 32.37280273 C5.1323019 37.8676981 5.1323019 37.8676981 4 39 C2.14712498 39.07226502 0.29166122 39.0838122 -1.5625 39.0625 C-2.57441406 39.05347656 -3.58632812 39.04445312 -4.62890625 39.03515625 C-5.41136719 39.02355469 -6.19382813 39.01195312 -7 39 C-6.42738426 30.4648792 -4.72357068 22.22578117 -2.9375 13.875 C-2.65251239 12.52353914 -2.36800381 11.17197716 -2.08398438 9.8203125 C-1.39400906 6.54585338 -0.69924192 3.27249049 0 0 Z " fill="#D81E24" transform="translate(183,73)"/>
<path d="M0 0 C4.21752518 -0.02473064 8.43501186 -0.04287453 12.65258789 -0.05493164 C14.08716568 -0.05995842 15.52173836 -0.06678079 16.95629883 -0.07543945 C19.01905582 -0.08757752 21.08174504 -0.09324486 23.14453125 -0.09765625 C24.38565674 -0.10289307 25.62678223 -0.10812988 26.90551758 -0.11352539 C30 0 30 0 33 1 C32.34 3.31 31.68 5.62 31 8 C23.74 8.33 16.48 8.66 9 9 C8.01 11.97 7.02 14.94 6 18 C5.01 18.33 4.02 18.66 3 19 C3 15.66666667 3 12.33333333 3 9 C2.01 8.67 1.02 8.34 0 8 C0 5.36 0 2.72 0 0 Z " fill="#D71F23" transform="translate(251,55)"/>
<path d="M0 0 C1.67542976 0.28604898 3.34385343 0.61781233 5 1 C5 3.97 5 6.94 5 10 C6.65 9.67 8.3 9.34 10 9 C10 7.68 10 6.36 10 5 C16.6 5 23.2 5 30 5 C30.495 8.96 30.495 8.96 31 13 C21.66666667 13 12.33333333 13 3 13 C2.34 14.65 1.68 16.3 1 18 C0.01 16.68 -0.98 15.36 -2 14 C-2.99 14.495 -2.99 14.495 -4 15 C-4.39473574 9.73685677 -3.17298232 5.71751084 -1 1 C-0.67 0.67 -0.34 0.34 0 0 Z " fill="#DA1E25" transform="translate(455,72)"/>
<path d="M0 0 C2.31 0 4.62 0 7 0 C7.33 0.99 7.66 1.98 8 3 C9.98 3 11.96 3 14 3 C14.66 4.98 15.32 6.96 16 9 C13.00873681 10.72206188 10.89314287 11.24179923 7.453125 11.1953125 C6.18662109 11.18564453 6.18662109 11.18564453 4.89453125 11.17578125 C4.02183594 11.15902344 3.14914063 11.14226563 2.25 11.125 C1.36183594 11.11597656 0.47367188 11.10695313 -0.44140625 11.09765625 C-2.62788058 11.07414577 -4.81380094 11.04128499 -7 11 C-7 11.66 -7 12.32 -7 13 C-7.99 13 -8.98 13 -10 13 C-10.33 13.99 -10.66 14.98 -11 16 C-12.65 15.67 -14.3 15.34 -16 15 C-16.33 13.68 -16.66 12.36 -17 11 C-14.08596738 9.05731159 -11.14191424 7.53604696 -8 6 C-8 5.01 -8 4.02 -8 3 C-5.36 3 -2.72 3 0 3 C0 2.01 0 1.02 0 0 Z " fill="#D61F25" transform="translate(126,52)"/>
<path d="M0 0 C0 1.32 0 2.64 0 4 C0.66 4 1.32 4 2 4 C2 4.66 2 5.32 2 6 C2.66 6 3.32 6 4 6 C5.6761137 10.09013908 4.23898062 13.71908599 3.0625 17.75 C2.381875 20.1425 1.70125 22.535 1 25 C7.27 24.67 13.54 24.34 20 24 C19.34 24.99 18.68 25.98 18 27 C15.26908649 27.2496156 12.78548387 27.32663631 10.0625 27.25 C8.96905273 27.24226563 8.96905273 27.24226563 7.85351562 27.234375 C4.65980191 27.18753777 2.04692328 27.01564109 -1 26 C-0.9278125 25.05898437 -0.855625 24.11796875 -0.78125 23.1484375 C-0.6884375 21.90320313 -0.595625 20.65796875 -0.5 19.375 C-0.4071875 18.14523438 -0.314375 16.91546875 -0.21875 15.6484375 C-0.02515931 12.41962143 0.03979339 9.23321325 0 6 C-0.598125 6.515625 -1.19625 7.03125 -1.8125 7.5625 C-2.534375 8.036875 -3.25625 8.51125 -4 9 C-4.99 8.67 -5.98 8.34 -7 8 C-6.98839844 8.63808594 -6.97679687 9.27617188 -6.96484375 9.93359375 C-6.95582031 10.75988281 -6.94679688 11.58617188 -6.9375 12.4375 C-6.92589844 13.26121094 -6.91429687 14.08492187 -6.90234375 14.93359375 C-7 17 -7 17 -8 18 C-8.23075082 19.34747084 -8.41153063 20.70377565 -8.5625 22.0625 C-8.706875 23.361875 -8.85125 24.66125 -9 26 C-9.66 26 -10.32 26 -11 26 C-11 28.97 -11 31.94 -11 35 C-2.09 35 6.82 35 16 35 C16 35.33 16 35.66 16 36 C6.43 36 -3.14 36 -13 36 C-14.25511319 32.23466044 -13.4932697 29.50158803 -12.671875 25.7421875 C-12.52220276 25.03853058 -12.37253052 24.33487366 -12.21832275 23.6098938 C-11.89947253 22.12462541 -11.57643109 20.64025147 -11.24951172 19.15673828 C-10.75102028 16.87966059 -10.2753124 14.59858145 -9.80078125 12.31640625 C-9.48835668 10.8747008 -9.17459984 9.43328327 -8.859375 7.9921875 C-8.71860535 7.30679901 -8.57783569 6.62141052 -8.43280029 5.91525269 C-7.99902344 4.00341797 -7.99902344 4.00341797 -7 1 C-4 0 -4 0 0 0 Z " fill="#C1242B" transform="translate(402,76)"/>
<path d="M0 0 C9.57 0 19.14 0 29 0 C29.66 2.64 30.32 5.28 31 8 C5 8 5 8 3 7 C2.67 6.01 2.34 5.02 2 4 C1.01 4.495 1.01 4.495 0 5 C0 3.35 0 1.7 0 0 Z " fill="#D71F23" transform="translate(457,55)"/>
<path d="M0 0 C2.97 0 5.94 0 9 0 C9 0.66 9 1.32 9 2 C9.66 2 10.32 2 11 2 C11.28875 2.7425 11.5775 3.485 11.875 4.25 C12.89396155 6.93299736 12.89396155 6.93299736 14.1875 9 C15.27383327 11.67405112 14.79033971 13.26973556 14 16 C13.67 16.66 13.34 17.32 13 18 C10.23723823 17.47731534 7.6739124 16.89130413 5 16 C5 14.02 5 12.04 5 10 C4.01 9.67 3.02 9.34 2 9 C2 8.01 2 7.02 2 6 C-0.64 5.67 -3.28 5.34 -6 5 C-5.67 4.34 -5.34 3.68 -5 3 C-3.66666667 2.66666667 -2.33333333 2.33333333 -1 2 C-0.67 1.34 -0.34 0.68 0 0 Z " fill="#D61F23" transform="translate(423,55)"/>
<path d="M0 0 C2.3125 0.5625 2.3125 0.5625 5 2 C7.19685576 5.73465478 8.01365922 8.22142423 7.9375 12.5625 C6.89558473 16.382856 5.43865534 18.89625683 3 22 C2.34 22.33 1.68 22.66 1 23 C1.268125 23.53625 1.53625 24.0725 1.8125 24.625 C2.204375 25.40875 2.59625 26.1925 3 27 C3.53625 27.9075 4.0725 28.815 4.625 29.75 C6.35378593 33.8362213 6.22761701 36.59940452 6 41 C5.67 41 5.34 41 5 41 C4.855625 39.906875 4.71125 38.81375 4.5625 37.6875 C4.11711896 34.06877013 4.11711896 34.06877013 3 31 C2.0925 31.0825 1.185 31.165 0.25 31.25 C-3 31 -3 31 -5.375 29 C-5.91125 28.34 -6.4475 27.68 -7 27 C-5.68 27 -4.36 27 -3 27 C-3.66 25.68 -4.32 24.36 -5 23 C-4.34 22.67 -3.68 22.34 -3 22 C-2.67 21.01 -2.34 20.02 -2 19 C-3.98 19.33 -5.96 19.66 -8 20 C-7.67 19.278125 -7.34 18.55625 -7 17.8125 C-5.99396471 14.98302573 -5.83022598 12.97104534 -6 10 C-5.34 10 -4.68 10 -4 10 C-4 11.98 -4 13.96 -4 16 C-3.4225 16.144375 -2.845 16.28875 -2.25 16.4375 C-0.16666667 16.95833333 1.91666667 17.47916667 4 18 C4.33 15.03 4.66 12.06 5 9 C4.34 8.67 3.68 8.34 3 8 C2.375 4.9375 2.375 4.9375 2 2 C1.34 2 0.68 2 0 2 C0 1.34 0 0.68 0 0 Z " fill="#C5212B" transform="translate(432,55)"/>
<path d="M0 0 C1.77189102 -0.044858 3.54611543 0.01392434 5.31640625 0.1015625 C5.97640625 0.7615625 6.63640625 1.4215625 7.31640625 2.1015625 C7.109375 4.01171875 7.109375 4.01171875 6.50390625 6.1640625 C6.21580078 7.23333984 6.21580078 7.23333984 5.921875 8.32421875 C5.31640625 10.1015625 5.31640625 10.1015625 4.31640625 11.1015625 C2.38973118 11.18904457 0.45988764 11.20853584 -1.46875 11.19921875 C-2.63857422 11.19599609 -3.80839844 11.19277344 -5.01367188 11.18945312 C-6.24537109 11.18107422 -7.47707031 11.17269531 -8.74609375 11.1640625 C-10.59944336 11.15729492 -10.59944336 11.15729492 -12.49023438 11.15039062 C-15.55470788 11.13855868 -18.61915668 11.12062258 -21.68359375 11.1015625 C-22.34359375 15.0615625 -23.00359375 19.0215625 -23.68359375 23.1015625 C-24.34359375 23.1015625 -25.00359375 23.1015625 -25.68359375 23.1015625 C-26.09332468 17.50190641 -25.13071181 15.81150465 -22.68359375 10.1015625 C-15.42359375 10.1015625 -8.16359375 10.1015625 -0.68359375 10.1015625 C-0.35359375 8.4515625 -0.02359375 6.8015625 0.31640625 5.1015625 C0.64640625 4.4415625 0.97640625 3.7815625 1.31640625 3.1015625 C-9.57359375 2.7715625 -20.46359375 2.4415625 -31.68359375 2.1015625 C-32.01359375 4.4115625 -32.34359375 6.7215625 -32.68359375 9.1015625 C-33.01359375 9.1015625 -33.34359375 9.1015625 -33.68359375 9.1015625 C-33.35359375 6.4615625 -33.02359375 3.8215625 -32.68359375 1.1015625 C-28.55767659 0.95738547 -24.43170042 0.81504201 -20.30566406 0.67431641 C-18.90525654 0.62630428 -17.50486538 0.57781179 -16.10449219 0.52880859 C-10.73669628 0.34120374 -5.36715198 0.20312366 0 0 Z " fill="#C4292D" transform="translate(282.68359375,52.8984375)"/>
<path d="M0 0 C0.74472061 -0.00095673 1.48944122 -0.00191345 2.25672913 -0.00289917 C3.83285608 -0.00358007 5.40898584 -0.00173205 6.98510742 0.00244141 C9.3970369 0.00778344 11.80877952 0.0024973 14.22070312 -0.00390625 C15.75130249 -0.0032453 17.28190175 -0.0019638 18.8125 0 C19.53445053 -0.00202423 20.25640106 -0.00404846 21.00022888 -0.00613403 C24.09869883 0.00835637 26.50965213 0.14514446 29.47265625 1.1328125 C29.33216107 2.61249574 29.18510799 4.09155766 29.03515625 5.5703125 C28.95394531 6.39402344 28.87273437 7.21773437 28.7890625 8.06640625 C28.47265625 10.1328125 28.47265625 10.1328125 27.47265625 11.1328125 C25.54598118 11.22029457 23.61613764 11.23978584 21.6875 11.23046875 C20.51767578 11.22724609 19.34785156 11.22402344 18.14257812 11.22070312 C16.91087891 11.21232422 15.67917969 11.20394531 14.41015625 11.1953125 C12.55680664 11.18854492 12.55680664 11.18854492 10.66601562 11.18164062 C7.60151508 11.16980858 4.53710904 11.15332423 1.47265625 11.1328125 C1.14265625 12.7828125 0.81265625 14.4328125 0.47265625 16.1328125 C0.14265625 16.1328125 -0.18734375 16.1328125 -0.52734375 16.1328125 C-0.57006475 14.46669345 -0.56798207 12.79898365 -0.52734375 11.1328125 C1.09045782 9.51501093 2.92901143 9.91009103 5.1640625 9.81640625 C6.10830078 9.77451172 7.05253906 9.73261719 8.02539062 9.68945312 C9.01861328 9.65013672 10.01183594 9.61082031 11.03515625 9.5703125 C12.53079102 9.50553711 12.53079102 9.50553711 14.05664062 9.43945312 C16.52849775 9.33300952 19.00045935 9.23099322 21.47265625 9.1328125 C21.14265625 6.8228125 20.81265625 4.5128125 20.47265625 2.1328125 C10.90265625 2.1328125 1.33265625 2.1328125 -8.52734375 2.1328125 C-8.52734375 3.7828125 -8.52734375 5.4328125 -8.52734375 7.1328125 C-9.18734375 6.8028125 -9.84734375 6.4728125 -10.52734375 6.1328125 C-10.15234375 3.6953125 -10.15234375 3.6953125 -9.52734375 1.1328125 C-6.48905791 -0.38633042 -3.33197858 -0.0093162 0 0 Z " fill="#B9272B" transform="translate(465.52734375,52.8671875)"/>
<path d="M0 0 C0.33 0 0.66 0 1 0 C1.06058594 0.81984375 1.12117188 1.6396875 1.18359375 2.484375 C1.26738281 3.56203125 1.35117188 4.6396875 1.4375 5.75 C1.51871094 6.81734375 1.59992188 7.8846875 1.68359375 8.984375 C1.94090773 11.43679962 2.31812218 13.63921291 3 16 C7.6794094 17.30162882 12.18346669 17.79905622 17 17 C20.96660237 14.70850759 23.47975332 11.78037002 26 8 C29.95820859 8.56545837 32.6659053 9.80902348 36 12 C35.625 14.4375 35.625 14.4375 35 17 C34.01 17.495 34.01 17.495 33 18 C33 16.68 33 15.36 33 14 C31.68 13.67 30.36 13.34 29 13 C29 13.66 29 14.32 29 15 C28.01 15.33 27.02 15.66 26 16 C26 15.34 26 14.68 26 14 C25.01 14.33 24.02 14.66 23 15 C22.26676204 17.01508358 22.26676204 17.01508358 22 19 C15.97403427 20.0712828 10.11090483 20.09945415 4 20 C3.67 19.01 3.34 18.02 3 17 C1.02 16.67 -0.96 16.34 -3 16 C-2 14 -2 14 -1 13 C-0.76518307 10.81707226 -0.58636677 8.62796826 -0.4375 6.4375 C-0.35371094 5.23996094 -0.26992187 4.04242188 -0.18359375 2.80859375 C-0.12300781 1.88175781 -0.06242187 0.95492187 0 0 Z " fill="#BA2730" transform="translate(108,83)"/>
<path d="M0 0 C1.34771484 -0.00386719 1.34771484 -0.00386719 2.72265625 -0.0078125 C4.9375 0.125 4.9375 0.125 5.9375 1.125 C6.09753488 3.78926685 6.19692889 6.43060428 6.25390625 9.09765625 C6.27468735 9.89529892 6.29546844 10.69294159 6.31687927 11.51475525 C6.38246158 14.07224611 6.44129967 16.6298428 6.5 19.1875 C6.54317699 20.91732882 6.58679101 22.64714679 6.63085938 24.37695312 C6.73815172 28.6261926 6.83939426 32.8755389 6.9375 37.125 C7.5975 35.475 8.2575 33.825 8.9375 32.125 C9.625 33.8125 9.625 33.8125 9.9375 36.125 C8.625 38.875 8.625 38.875 6.9375 41.125 C6.2775 41.125 5.6175 41.125 4.9375 41.125 C4.6075 28.585 4.2775 16.045 3.9375 3.125 C0.9675 2.795 -2.0025 2.465 -5.0625 2.125 C-5.0625 20.605 -5.0625 39.085 -5.0625 58.125 C-5.3925 58.125 -5.7225 58.125 -6.0625 58.125 C-6.3925 39.315 -6.7225 20.505 -7.0625 1.125 C-4.56110398 -0.12569801 -2.78857309 -0.00802467 0 0 Z " fill="#A8262C" transform="translate(300.0625,52.875)"/>
<path d="M0 0 C0.33 0 0.66 0 1 0 C1 1.98 1 3.96 1 6 C0.34 6 -0.32 6 -1 6 C-1.02725341 7.7290774 -1.04650987 9.45828176 -1.0625 11.1875 C-1.07410156 12.15042969 -1.08570313 13.11335938 -1.09765625 14.10546875 C-1.00486622 16.85576513 -0.62111685 19.32479591 0 22 C-3.75 25 -3.75 25 -6 25 C-6.33 25.99 -6.66 26.98 -7 28 C-7.66 28.33 -8.32 28.66 -9 29 C-10.13350534 31.01669827 -10.13350534 31.01669827 -11 33 C-11.66 33 -12.32 33 -13 33 C-13.90238747 30.29283758 -14.11851302 28.76223232 -14.09765625 25.98828125 C-14.09443359 25.23095703 -14.09121094 24.47363281 -14.08789062 23.69335938 C-14.07951172 22.90767578 -14.07113281 22.12199219 -14.0625 21.3125 C-14.05798828 20.51521484 -14.05347656 19.71792969 -14.04882812 18.89648438 C-14.0370585 16.93095743 -14.01912348 14.96546915 -14 13 C-13.67 13 -13.34 13 -13 13 C-12.67 17.62 -12.34 22.24 -12 27 C-7.40566445 18.22899577 -3.69350624 9.17522298 0 0 Z " fill="#C4262A" transform="translate(350,62)"/>
<path d="M0 0 C1.21236328 0.02707031 1.21236328 0.02707031 2.44921875 0.0546875 C3.37154297 0.08949219 3.37154297 0.08949219 4.3125 0.125 C5.63885139 4.10405418 4.2598175 6.27450853 2.63671875 9.91015625 C2.35149857 10.56704941 2.06627838 11.22394257 1.77241516 11.90074158 C1.1673863 13.28877687 0.55765579 14.67477081 -0.05639648 16.05883789 C-0.99597648 18.1784234 -1.92000855 20.3042664 -2.84179688 22.43164062 C-3.4313849 23.77904297 -4.02185059 25.12606169 -4.61328125 26.47265625 C-4.89045486 27.10913589 -5.16762848 27.74561554 -5.45320129 28.40138245 C-6.64314111 31.07088031 -7.60137191 33.03887191 -9.6875 35.125 C-9.18553707 32.28054341 -8.54397186 29.72631072 -7.5625 27 C-6.37565621 24.09595304 -6.37565621 24.09595304 -7.6875 21.125 C-6.6975 20.795 -5.7075 20.465 -4.6875 20.125 C-3.95426204 18.10991642 -3.95426204 18.10991642 -3.6875 16.125 C-3.0275 16.125 -2.3675 16.125 -1.6875 16.125 C-1.6875 14.475 -1.6875 12.825 -1.6875 11.125 C-1.0275 11.125 -0.3675 11.125 0.3125 11.125 C-0.0175 9.805 -0.3475 8.485 -0.6875 7.125 C-1.6775 7.62 -1.6775 7.62 -2.6875 8.125 C-3.6775 7.135 -4.6675 6.145 -5.6875 5.125 C-6.3475 6.445 -7.0075 7.765 -7.6875 9.125 C-8.3475 9.125 -9.0075 9.125 -9.6875 9.125 C-8.14182838 2.7045179 -6.96351372 -0.20184098 0 0 Z " fill="#B8282E" transform="translate(360.6875,52.875)"/>
<path d="M0 0 C0.99 0.33 1.98 0.66 3 1 C4 8.875 4 8.875 4 10 C4.33 10 4.66 10 5 10 C5.309375 11.134375 5.61875 12.26875 5.9375 13.4375 C6.62924531 16.78775099 6.62924531 16.78775099 8 18 C8 17.01 8 16.02 8 15 C8.66 15 9.32 15 10 15 C10.66 13.02 11.32 11.04 12 9 C13 12 13 12 12.28515625 13.90234375 C9.11157202 19.1848913 5.96980503 22.18462069 0 24 C-3.5 24.25 -3.5 24.25 -6 24 C-6 23.34 -6 22.68 -6 22 C-5.01 22 -4.02 22 -3 22 C-3 21.34 -3 20.68 -3 20 C-1.35 19.34 0.3 18.68 2 18 C1.72382467 16.05925139 1.72382467 16.05925139 1 14 C0.01 13.34 -0.98 12.68 -2 12 C-1.34 11.01 -0.68 10.02 0 9 C0.24107326 6.71351152 0.24107326 6.71351152 0.125 4.3125 C0.10695313 3.50425781 0.08890625 2.69601563 0.0703125 1.86328125 C0.04710937 1.24839844 0.02390625 0.63351563 0 0 Z " fill="#C4252E" transform="translate(424,87)"/>
<path d="M0 0 C1.32 0.33 2.64 0.66 4 1 C4 2.32 4 3.64 4 5 C2.35 5 0.7 5 -1 5 C-2.10836423 6.88316159 -2.10836423 6.88316159 -3 9 C-2.67 9.66 -2.34 10.32 -2 11 C-5.22791555 13.1519437 -6.28400809 13.20086443 -10 13 C-10.33 11.68 -10.66 10.36 -11 9 C-11.928125 9.20625 -12.85625 9.4125 -13.8125 9.625 C-17 10 -17 10 -20 8 C-15.49646738 6.24252386 -11.82360189 5.80705592 -7 6 C-6.67 4.35 -6.34 2.7 -6 1 C-3.03 1.495 -3.03 1.495 0 2 C0 1.34 0 0.68 0 0 Z " fill="#D51F22" transform="translate(137,96)"/>
<path d="M0 0 C0.33 0 0.66 0 1 0 C1.2236337 1.41433206 1.42826476 2.83167618 1.625 4.25 C1.74101562 5.03890625 1.85703125 5.8278125 1.9765625 6.640625 C2.00319395 9.32152459 1.36592084 10.72694089 0 13 C2.97 13.495 2.97 13.495 6 14 C6 13.34 6 12.68 6 12 C7.32 11.67 8.64 11.34 10 11 C9.48446121 17.49850211 8.53332291 23.66226532 7 30 C6.67 30 6.34 30 6 30 C5.80341192 28.58456585 5.61812454 27.16755969 5.4375 25.75 C5.33308594 24.96109375 5.22867188 24.1721875 5.12109375 23.359375 C4.99972651 20.99467126 5.30366743 19.2488963 6 17 C5.01 17 4.02 17 3 17 C3 18.32 3 19.64 3 21 C1.68 20.67 0.36 20.34 -1 20 C-1.33 20.99 -1.66 21.98 -2 23 C-2.66 23 -3.32 23 -4 23 C-3.32545897 15.1753241 -1.73123042 7.65443386 0 0 Z " fill="#C12429" transform="translate(183,73)"/>
<path d="M0 0 C0.33 0 0.66 0 1 0 C0.39539872 6.17230728 -0.53655834 12.13303534 -1.84765625 18.19140625 C-2.11188637 19.43747902 -2.11188637 19.43747902 -2.38145447 20.70872498 C-2.93773857 23.32753531 -3.50000778 25.94501688 -4.0625 28.5625 C-4.44375814 30.35212864 -4.82462114 32.1418415 -5.20507812 33.93164062 C-6.13215863 38.2887464 -7.06460411 42.64467217 -8 47 C-8.33 47 -8.66 47 -9 47 C-8.98952637 46.40985107 -8.97905273 45.81970215 -8.96826172 45.21166992 C-8.92667956 42.53698996 -8.9006671 39.86237803 -8.875 37.1875 C-8.85824219 36.25873047 -8.84148437 35.32996094 -8.82421875 34.37304688 C-8.81777344 33.48037109 -8.81132812 32.58769531 -8.8046875 31.66796875 C-8.79421387 30.84578857 -8.78374023 30.0236084 -8.77294922 29.17651367 C-8.86003865 26.70578408 -8.86003865 26.70578408 -11 24 C-10.34 24 -9.68 24 -9 24 C-9 22.68 -9 21.36 -9 20 C-8.38125 19.95875 -7.7625 19.9175 -7.125 19.875 C-4.72578492 19.16829057 -4.72578492 19.16829057 -3.8125 16.4375 C-3.206496 13.8736369 -2.79033059 11.53571271 -2.5 8.9375 C-2.06842457 5.53884346 -1.43944978 3.07082619 0 0 Z " fill="#BA212A" transform="translate(171,62)"/>
<path d="M0 0 C0.66 0 1.32 0 2 0 C1.51775271 4.13354822 1.01114519 7.95541924 0 12 C8.58 12 17.16 12 26 12 C27.31223496 15.93670488 26.24296256 18.12488144 25 22 C24.34 22 23.68 22 23 22 C23.33 19.36 23.66 16.72 24 14 C22.87972412 14.00785522 22.87972412 14.00785522 21.73681641 14.01586914 C18.36621943 14.03660401 14.99563586 14.04964899 11.625 14.0625 C9.8615625 14.07506836 9.8615625 14.07506836 8.0625 14.08789062 C6.38027344 14.09272461 6.38027344 14.09272461 4.6640625 14.09765625 C3.10872803 14.10551147 3.10872803 14.10551147 1.52197266 14.11352539 C-1 14 -1 14 -3 13 C-2.343621 8.51474352 -1.29925791 4.33085971 0 0 Z " fill="#BB2731" transform="translate(459,89)"/>
<path d="M0 0 C0.33 1.32 0.66 2.64 1 4 C1.99 4 2.98 4 4 4 C3.67 5.32 3.34 6.64 3 8 C2.01 7.67 1.02 7.34 0 7 C0.01160156 7.63808594 0.02320313 8.27617188 0.03515625 8.93359375 C0.04417969 9.75988281 0.05320312 10.58617188 0.0625 11.4375 C0.07410156 12.26121094 0.08570313 13.08492187 0.09765625 13.93359375 C0 16 0 16 -1 17 C-1.23075082 18.34747084 -1.41153063 19.70377565 -1.5625 21.0625 C-1.706875 22.361875 -1.85125 23.66125 -2 25 C-2.66 25 -3.32 25 -4 25 C-4 27.97 -4 30.94 -4 34 C4.91 34 13.82 34 23 34 C23 34.33 23 34.66 23 35 C13.43 35 3.86 35 -6 35 C-7.26513694 31.20458917 -6.43918386 28.48138558 -5.56640625 24.70703125 C-5.40961899 24.00100266 -5.25283173 23.29497406 -5.09129333 22.56755066 C-4.58909205 20.31413611 -4.07595016 18.06337523 -3.5625 15.8125 C-3.21997942 14.28466727 -2.87817378 12.75667408 -2.53710938 11.22851562 C-1.69968924 7.48376492 -0.85244906 3.74135689 0 0 Z " fill="#B4282F" transform="translate(395,77)"/>
<path d="M0 0 C0.91007812 0.00902344 1.82015625 0.01804688 2.7578125 0.02734375 C3.45648438 0.03894531 4.15515625 0.05054688 4.875 0.0625 C5.07985966 5.59050983 4.34309587 10.457642 3.125 15.83984375 C2.94743164 16.65119278 2.76986328 17.46254181 2.58691406 18.29847717 C2.02309947 20.86721188 1.44922416 23.43357448 0.875 26 C0.48891427 27.75050361 0.10349081 29.50115343 -0.28125 31.25195312 C-1.22151515 35.52386462 -2.17080426 39.79367949 -3.125 44.0625 C-3.455 44.0625 -3.785 44.0625 -4.125 44.0625 C-3.795 37.7925 -3.465 31.5225 -3.125 25.0625 C-2.465 24.7325 -1.805 24.4025 -1.125 24.0625 C-0.6959742 21.96908482 -0.6959742 21.96908482 -0.5625 19.5625 C-0.22105489 15.15855489 -0.22105489 15.15855489 0.875 14.0625 C1.10692865 12.54780552 1.28715238 11.02495438 1.4375 9.5 C1.52128906 8.67371094 1.60507812 7.84742188 1.69140625 6.99609375 C1.75199219 6.35800781 1.81257813 5.71992187 1.875 5.0625 C2.535 5.0625 3.195 5.0625 3.875 5.0625 C3.875 4.0725 3.875 3.0825 3.875 2.0625 C0.575 2.0625 -2.725 2.0625 -6.125 2.0625 C-6.125 3.7125 -6.125 5.3625 -6.125 7.0625 C-6.785 7.0625 -7.445 7.0625 -8.125 7.0625 C-7.75 4.125 -7.75 4.125 -7.125 1.0625 C-4.60024538 -0.19987731 -2.81299534 -0.03606404 0 0 Z " fill="#AE2A33" transform="translate(381.125,52.9375)"/>
<path d="M0 0 C1 3 1 3 -1 13 C11.87 13.495 11.87 13.495 25 14 C24 21 24 21 22 24 C22.33 21.36 22.66 18.72 23 16 C14.75 16 6.5 16 -2 16 C-3.41778293 13.16443413 -2.86257622 11.0091294 -2.5625 7.875 C-2.46066406 6.77929688 -2.35882813 5.68359375 -2.25390625 4.5546875 C-2.17011719 3.71164063 -2.08632812 2.86859375 -2 2 C-1.34 2 -0.68 2 0 2 C0 1.34 0 0.68 0 0 Z " fill="#B02A37" transform="translate(255,87)"/>
<path d="M0 0 C2 3 2 3 2 5 C1.34 5 0.68 5 0 5 C0.33 5.99 0.66 6.98 1 8 C1.825 8.28875 2.65 8.5775 3.5 8.875 C4.325 9.24625 5.15 9.6175 6 10 C6.75 12.375 6.75 12.375 7 15 C7.26876953 15.90878906 7.26876953 15.90878906 7.54296875 16.8359375 C8.09597185 19.45443081 7.8766084 21.59752906 7.5625 24.25 C7.46066406 25.14203125 7.35882813 26.0340625 7.25390625 26.953125 C7.17011719 27.62859375 7.08632812 28.3040625 7 29 C6.67 29 6.34 29 6 29 C5.92652344 28.04287109 5.92652344 28.04287109 5.8515625 27.06640625 C5.73941406 25.82697266 5.73941406 25.82697266 5.625 24.5625 C5.55539063 23.73878906 5.48578125 22.91507813 5.4140625 22.06640625 C5.27742187 21.38449219 5.14078125 20.70257813 5 20 C4.34 19.67 3.68 19.34 3 19 C3 17.02 3 15.04 3 13 C-0.72614153 14.11854586 -0.72614153 14.11854586 -3 17 C-2.36934845 11.2190275 -1.34844868 5.6556294 0 0 Z " fill="#C42429" transform="translate(187,55)"/>
<path d="M0 0 C1.32 0 2.64 0 4 0 C5.18234854 3.69483919 5.2804701 7.14353614 5 11 C3.75 12.75 3.75 12.75 2 14 C1.278125 14.556875 0.55625 15.11375 -0.1875 15.6875 C-0.785625 16.120625 -1.38375 16.55375 -2 17 C-4.1385485 14.8614515 -4.42655063 13.86724686 -5 11 C-4.34 11 -3.68 11 -3 11 C-2.5359375 10.071875 -2.5359375 10.071875 -2.0625 9.125 C-1.375 7.75 -0.6875 6.375 0 5 C0.0396713 3.33380554 0.04384447 1.66608987 0 0 Z " fill="#D81F22" transform="translate(378,56)"/>
<path d="M0 0 C3.14437871 1.42806098 3.54501019 3.59966201 4.79370117 6.75097656 C5.27258789 7.94335938 5.75147461 9.13574219 6.24487305 10.36425781 C6.4869751 10.98961426 6.72907715 11.6149707 6.97851562 12.25927734 C7.71352502 14.15746635 8.46907289 16.04633763 9.22924805 17.93457031 C13.19636822 27.93580406 13.19636822 27.93580406 14.03198242 32.92285156 C12.71198242 32.92285156 11.39198242 32.92285156 10.03198242 32.92285156 C9.70198242 29.95285156 9.37198242 26.98285156 9.03198242 23.92285156 C7.71198242 23.59285156 6.39198242 23.26285156 5.03198242 22.92285156 C5.36198242 22.59285156 5.69198242 22.26285156 6.03198242 21.92285156 C6.36541793 19.46493128 6.36541793 19.46493128 6.03198242 16.92285156 C5.04198242 16.26285156 4.05198242 15.60285156 3.03198242 14.92285156 C2.70774672 12.94501376 2.39375255 10.96212298 2.21557617 8.96582031 C2.0006199 6.57386009 1.54482311 4.26726615 1.03198242 1.92285156 C-1.27801758 1.92285156 -3.58801758 1.92285156 -5.96801758 1.92285156 C-3.86624199 0.64677353 -2.48628452 -0.09746507 0 0 Z " fill="#B82631" transform="translate(199.968017578125,53.0771484375)"/>
<path d="M0 0 C0.33 0 0.66 0 1 0 C1.02689216 1.47906892 1.04634621 2.95827483 1.0625 4.4375 C1.07410156 5.26121094 1.08570313 6.08492188 1.09765625 6.93359375 C1 9 1 9 0 10 C-0.23287008 11.68183948 -0.41264166 13.3712416 -0.5625 15.0625 C-0.68818359 16.44115234 -0.68818359 16.44115234 -0.81640625 17.84765625 C-0.87699219 18.55792969 -0.93757813 19.26820312 -1 20 C-1.66 20 -2.32 20 -3 20 C-3 23.63 -3 27.26 -3 31 C-3.66 31 -4.32 31 -5 31 C-5.33 34.3 -5.66 37.6 -6 41 C-2.7 41 0.6 41 4 41 C4 41.33 4 41.66 4 42 C0.37 42 -3.26 42 -7 42 C-8.17427129 37.30291482 -7.37078241 33.90024207 -6.34765625 29.296875 C-6.16867294 28.45908508 -5.98968964 27.62129517 -5.80528259 26.75811768 C-5.23262006 24.08688638 -4.64773569 21.41850184 -4.0625 18.75 C-3.67171725 16.93767421 -3.28173371 15.12517589 -2.89257812 13.3125 C-1.93764218 8.87294599 -0.97173775 4.43590535 0 0 Z " fill="#AE2B33" transform="translate(370,70)"/>
<path d="M0 0 C1.051875 0.01160156 1.051875 0.01160156 2.125 0.0234375 C2.82625 0.01570313 3.5275 0.00796875 4.25 0 C6.125 0.3984375 6.125 0.3984375 8.125 3.3984375 C7.75 5.5859375 7.75 5.5859375 7.125 7.3984375 C7.125 6.7384375 7.125 6.0784375 7.125 5.3984375 C6.465 5.3984375 5.805 5.3984375 5.125 5.3984375 C4.465 6.7184375 3.805 8.0384375 3.125 9.3984375 C0.1875 8.6484375 0.1875 8.6484375 -2.875 7.3984375 C-3.875 5.4609375 -3.875 5.4609375 -3.875 3.3984375 C-1.875 0.3984375 -1.875 0.3984375 0 0 Z " fill="#D81F26" transform="translate(326.875,54.6015625)"/>
<path d="M0 0 C-0.66326879 5.1692853 -2.91924657 9.62251365 -5.0625 14.3125 C-5.62807617 15.56643555 -5.62807617 15.56643555 -6.20507812 16.84570312 C-7.13211807 18.89927262 -8.06386878 20.95056287 -9 23 C-9.33 23 -9.66 23 -10 23 C-10.22036864 19.14354879 -9.60355101 16.50776784 -8 13 C-7.34 13 -6.68 13 -6 13 C-6.34786708 11.02463255 -6.34786708 11.02463255 -7 9 C-7.66 8.67 -8.32 8.34 -9 8 C-9 7.34 -9 6.68 -9 6 C-8.34 5.67 -7.68 5.34 -7 5 C-6.67 4.01 -6.34 3.02 -6 2 C-3.85412616 0.684787 -2.52986895 0 0 0 Z " fill="#BD252D" transform="translate(351,88)"/>
<path d="M0 0 C0.33 0 0.66 0 1 0 C1.144375 0.94875 1.28875 1.8975 1.4375 2.875 C1.82935399 5.8934494 1.82935399 5.8934494 3 8 C2.01 8.495 2.01 8.495 1 9 C1 9.99 1 10.98 1 12 C3.97 12.495 3.97 12.495 7 13 C7.28875 12.21625 7.5775 11.4325 7.875 10.625 C9 8 9 8 11 6 C10.125 13.875 10.125 13.875 9 15 C7.14712498 15.07226502 5.29166122 15.0838122 3.4375 15.0625 C2.42558594 15.05347656 1.41367188 15.04445313 0.37109375 15.03515625 C-0.41136719 15.02355469 -1.19382813 15.01195313 -2 15 C-1.03644647 4.44191344 -1.03644647 4.44191344 0 0 Z " fill="#B4262C" transform="translate(178,97)"/>
<path d="M0 0 C0.33 0 0.66 0 1 0 C1 3.63 1 7.26 1 11 C12.88 11 24.76 11 37 11 C37 11.33 37 11.66 37 12 C24.46 12 11.92 12 -1 12 C-2.09898702 8.70303895 -1.87124444 7.59505097 -1.0625 4.3125 C-0.86785156 3.50425781 -0.67320312 2.69601563 -0.47265625 1.86328125 C-0.31667969 1.24839844 -0.16070312 0.63351563 0 0 Z " fill="#AF252D" transform="translate(240,100)"/>
<path d="M0 0 C0.33 0 0.66 0 1 0 C1 2.64 1 5.28 1 8 C2.32 8.66 3.64 9.32 5 10 C4.21238281 10.35707031 3.42476563 10.71414062 2.61328125 11.08203125 C-0.85836565 13.62998136 -1.02807136 15.51764247 -1.8125 19.6875 C-2.16248047 21.45673828 -2.16248047 21.45673828 -2.51953125 23.26171875 C-2.75736328 24.61716797 -2.75736328 24.61716797 -3 26 C-2.34 26.33 -1.68 26.66 -1 27 C-1.99 27.66 -2.98 28.32 -4 29 C-5.03716816 25.04993402 -4.87513325 22.23536386 -4.00390625 18.26171875 C-3.77509766 17.19501953 -3.54628906 16.12832031 -3.31054688 15.02929688 C-3.06369141 13.92650391 -2.81683594 12.82371094 -2.5625 11.6875 C-2.19801758 10.00430664 -2.19801758 10.00430664 -1.82617188 8.28710938 C-1.22623449 5.52269202 -0.61723879 2.7605965 0 0 Z " fill="#BC2A30" transform="translate(454,61)"/>
<path d="M0 0 C2 0 2 0 3.625 1.1875 C5.42149467 3.55560662 5.23521845 5.09897251 5 8 C5.99 8.33 6.98 8.66 8 9 C7.67 10.65 7.34 12.3 7 14 C7.99 14.33 8.98 14.66 10 15 C9.67 16.65 9.34 18.3 9 20 C9.66 20 10.32 20 11 20 C11.33 22.64 11.66 25.28 12 28 C9.53879159 25.53879159 8.84996577 23.37298653 7.6171875 20.1171875 C7.17246094 18.95058594 6.72773438 17.78398438 6.26953125 16.58203125 C5.80933594 15.35871094 5.34914062 14.13539062 4.875 12.875 C4.40707031 11.64394531 3.93914062 10.41289063 3.45703125 9.14453125 C2.29987533 6.09814118 1.14775897 3.04994023 0 0 Z " fill="#B4262B" transform="translate(196,72)"/>
<path d="M0 0 C0.33 0 0.66 0 1 0 C1.33 4.62 1.66 9.24 2 14 C3.32 12.35 4.64 10.7 6 9 C6 9.66 6 10.32 6 11 C7.32 11.33 8.64 11.66 10 12 C9.34 12 8.68 12 8 12 C7.67 12.99 7.34 13.98 7 15 C6.01 15.495 6.01 15.495 5 16 C3.86649466 18.01669827 3.86649466 18.01669827 3 20 C2.34 20 1.68 20 1 20 C0.09761253 17.29283758 -0.11851302 15.76223232 -0.09765625 12.98828125 C-0.09443359 12.23095703 -0.09121094 11.47363281 -0.08789062 10.69335938 C-0.07951172 9.90767578 -0.07113281 9.12199219 -0.0625 8.3125 C-0.05798828 7.51521484 -0.05347656 6.71792969 -0.04882812 5.89648438 C-0.0370585 3.93095743 -0.01912348 1.96546915 0 0 Z " fill="#B31F28" transform="translate(336,75)"/>
<path d="M0 0 C2.3125 0.5625 2.3125 0.5625 5 2 C7.22575784 5.78378833 8.02669436 8.2258636 7.875 12.625 C7.013344 15.94853027 6.06917892 18.26868382 4 21 C3.34 21 2.68 21 2 21 C2.309375 20.319375 2.61875 19.63875 2.9375 18.9375 C4.13370649 15.63034088 4.59005397 12.48454122 5 9 C4.34 8.67 3.68 8.34 3 8 C2.375 4.9375 2.375 4.9375 2 2 C1.34 2 0.68 2 0 2 C0 1.34 0 0.68 0 0 Z " fill="#B62B32" transform="translate(432,55)"/>
<path d="M0 0 C3.96 0.33 7.92 0.66 12 1 C12 1.66 12 2.32 12 3 C10.7934375 3.4640625 10.7934375 3.4640625 9.5625 3.9375 C7.10919595 4.76335345 7.10919595 4.76335345 6 6 C3.32941149 6.14115161 0.67567762 6.04247107 -2 6 C-1.34 4.02 -0.68 2.04 0 0 Z " fill="#DC1E1E" transform="translate(406,76)"/>
<path d="M0 0 C0.33 0.66 0.66 1.32 1 2 C-0.1446875 3.0828125 -0.1446875 3.0828125 -1.3125 4.1875 C-4.73705709 7.77133881 -6.86432858 11.56437474 -9 16 C-9.66 16 -10.32 16 -11 16 C-11 16.99 -11 17.98 -11 19 C-11.66 19 -12.32 19 -13 19 C-11.92889562 10.16338884 -6.60586069 5.27506836 0 0 Z " fill="#B52B35" transform="translate(112,57)"/>
<path d="M0 0 C8.25 0 16.5 0 25 0 C26.31223496 3.93670488 25.24296256 6.12488144 24 10 C23.34 10 22.68 10 22 10 C22.33 7.36 22.66 4.72 23 2 C11.615 1.505 11.615 1.505 0 1 C0 0.67 0 0.34 0 0 Z " fill="#A83240" transform="translate(460,101)"/>
<path d="M0 0 C0.33 0 0.66 0 1 0 C1 3.66666667 1 7.33333333 1 11 C0.34 10.67 -0.32 10.34 -1 10 C-0.96519531 10.79664062 -0.93039063 11.59328125 -0.89453125 12.4140625 C-0.62565905 22.93848858 -0.62565905 22.93848858 -4 28 C-5.20467209 24.47020092 -4.79130044 21.96986544 -4.00390625 18.359375 C-3.77509766 17.28945312 -3.54628906 16.21953125 -3.31054688 15.1171875 C-3.06369141 14.00601563 -2.81683594 12.89484375 -2.5625 11.75 C-2.31951172 10.62335938 -2.07652344 9.49671875 -1.82617188 8.3359375 C-1.22531055 5.55548119 -0.61631561 2.77706428 0 0 Z " fill="#B42B2F" transform="translate(246,72)"/>
<path d="M0 0 C0.33 0 0.66 0 1 0 C1.03738281 0.62648437 1.07476562 1.25296875 1.11328125 1.8984375 C1.17902344 2.71570312 1.24476563 3.53296875 1.3125 4.375 C1.37050781 5.18710938 1.42851562 5.99921875 1.48828125 6.8359375 C1.82990528 9.37921338 1.82990528 9.37921338 5 11 C5.99 9.68 6.98 8.36 8 7 C8.33 8.65 8.66 10.3 9 12 C6.625 13.5625 6.625 13.5625 4 15 C3.34 14.67 2.68 14.34 2 14 C2 13.34 2 12.68 2 12 C1.01 12 0.02 12 -1 12 C-1.08159574 7.83861737 -0.98248524 4.0527516 0 0 Z " fill="#CA2427" transform="translate(372,61)"/>
<path d="M0 0 C8.91 0 17.82 0 27 0 C27 0.33 27 0.66 27 1 C18.42 1 9.84 1 1 1 C0.34 4.96 -0.32 8.92 -1 13 C-1.66 13 -2.32 13 -3 13 C-3.40973093 7.40034391 -2.44711806 5.70994215 0 0 Z " fill="#AF272C" transform="translate(260,63)"/>
<path d="M0 0 C0.33 0 0.66 0 1 0 C1 8.25 1 16.5 1 25 C-1 24 -1 24 -1.61328125 22.33203125 C-2.8507584 14.86966903 -2.64271786 7.10230424 0 0 Z " fill="#B6242C" transform="translate(98,76)"/>
<path d="M0 0 C2 2 2 2 2.22705078 3.97119141 C2.21134033 5.1494751 2.21134033 5.1494751 2.1953125 6.3515625 C2.18564453 7.62773438 2.18564453 7.62773438 2.17578125 8.9296875 C2.15902344 9.81914063 2.14226562 10.70859375 2.125 11.625 C2.11597656 12.5221875 2.10695313 13.419375 2.09765625 14.34375 C2.0740497 16.56276586 2.0411231 18.78125077 2 21 C1.67 21 1.34 21 1 21 C0.93941406 19.87980469 0.87882812 18.75960937 0.81640625 17.60546875 C0.73198576 16.13280016 0.64733851 14.66014456 0.5625 13.1875 C0.52318359 12.44951172 0.48386719 11.71152344 0.44335938 10.95117188 C0.25618965 7.76928658 0.01279207 5.03837622 -1 2 C-3.64 2 -6.28 2 -9 2 C-9.33 2.99 -9.66 3.98 -10 5 C-10.33 4.34 -10.66 3.68 -11 3 C-8.20535416 -1.19196876 -4.55778888 -0.36172928 0 0 Z " fill="#AB2931" transform="translate(334,53)"/>
<path d="M0 0 C6.08812814 0.21361853 9.08235643 1.29018107 13.5546875 5.4296875 C16.37965219 8.49897346 17 9.72906855 17 14 C16.34 14 15.68 14 15 14 C14.608125 12.88625 14.21625 11.7725 13.8125 10.625 C12.57517033 7.68039334 12.26393503 7.14117455 9.3125 5.5625 C8.549375 5.376875 7.78625 5.19125 7 5 C7 4.01 7 3.02 7 2 C4.69 2.33 2.38 2.66 0 3 C0 2.01 0 1.02 0 0 Z " fill="#B62630" transform="translate(133,53)"/>
<path d="M0 0 C1.65 0 3.3 0 5 0 C3.43216484 4.23315493 0.61693496 6.42641166 -3 9 C-6.375 9.8125 -6.375 9.8125 -9 10 C-9 9.34 -9 8.68 -9 8 C-8.05125 7.7525 -7.1025 7.505 -6.125 7.25 C-2.93758659 6.32091106 -2.93758659 6.32091106 -1.6875 4 C-1.460625 3.34 -1.23375 2.68 -1 2 C-0.67 1.34 -0.34 0.68 0 0 Z " fill="#BA2626" transform="translate(136,101)"/>
<path d="M0 0 C4.95 0 9.9 0 15 0 C15 0.33 15 0.66 15 1 C10.71 1 6.42 1 2 1 C1.34 5.29 0.68 9.58 0 14 C-0.66 14 -1.32 14 -2 14 C-2 11.03 -2 8.06 -2 5 C-1.34 5 -0.68 5 0 5 C0 3.35 0 1.7 0 0 Z " fill="#AA262D" transform="translate(409,62)"/>
<path d="M0 0 C0.66 0 1.32 0 2 0 C1.68853528 1.89600369 1.37578283 3.79179587 1.0625 5.6875 C0.88847656 6.74324219 0.71445313 7.79898438 0.53515625 8.88671875 C0.06832879 11.60249604 -0.44422616 14.30124235 -1 17 C-1.33 17 -1.66 17 -2 17 C-3.09321611 12.49048355 -4.13999677 7.27999354 -2 3 C-1.34 3 -0.68 3 0 3 C0 2.01 0 1.02 0 0 Z " fill="#BD202A" transform="translate(229,80)"/>
<path d="M0 0 C1.2065625 0.0309375 1.2065625 0.0309375 2.4375 0.0625 C1.88644091 4.0117568 1.04814629 7.41170174 -0.5625 11.0625 C-1.5525 11.0625 -2.5425 11.0625 -3.5625 11.0625 C-3.5625 10.4025 -3.5625 9.7425 -3.5625 9.0625 C-2.9025 9.0625 -2.2425 9.0625 -1.5625 9.0625 C-1.71847656 8.49660156 -1.87445313 7.93070313 -2.03515625 7.34765625 C-2.22980469 6.61417969 -2.42445313 5.88070312 -2.625 5.125 C-2.92083984 4.02865234 -2.92083984 4.02865234 -3.22265625 2.91015625 C-3.33480469 2.30042969 -3.44695312 1.69070312 -3.5625 1.0625 C-2.5625 0.0625 -2.5625 0.0625 0 0 Z " fill="#BB262F" transform="translate(362.5625,54.9375)"/>
<path d="M0 0 C3.63 0 7.26 0 11 0 C10.67 0.66 10.34 1.32 10 2 C9.34 2 8.68 2 8 2 C8 2.66 8 3.32 8 4 C5.69 4 3.38 4 1 4 C0.67 2.68 0.34 1.36 0 0 Z " fill="#D11A2C" transform="translate(406,82)"/>
<path d="M0 0 C0.99 0.99 1.98 1.98 3 3 C2.34 4.65 1.68 6.3 1 8 C-0.875 7.8125 -0.875 7.8125 -3 7 C-4.25 4.4375 -4.25 4.4375 -5 2 C-2.525 2.495 -2.525 2.495 0 3 C0 2.01 0 1.02 0 0 Z " fill="#C8222D" transform="translate(104,99)"/>
<path d="M0 0 C0.33 0 0.66 0 1 0 C1.55353075 12.66970387 1.55353075 12.66970387 -2 18 C-3.51553092 14.02549507 -2.49888623 10.79518851 -1.5625 6.75 C-1.27503906 5.48671875 -0.98757812 4.2234375 -0.69140625 2.921875 C-0.46324219 1.95765625 -0.23507813 0.9934375 0 0 Z " fill="#B52A2F" transform="translate(156,78)"/>
<path d="M0 0 C0.625 2.3125 0.625 2.3125 1 5 C0.01 6.485 0.01 6.485 -1 8 C-1 6.02 -1 4.04 -1 2 C-3.97 2 -6.94 2 -10 2 C-10 2.99 -10 3.98 -10 5 C-10.66 5 -11.32 5 -12 5 C-11.67 3.68 -11.34 2.36 -11 1 C-7.27569643 0.30710631 -3.78916254 -0.11144596 0 0 Z " fill="#AC2B33" transform="translate(173,53)"/>
<path d="M0 0 C0.66 0 1.32 0 2 0 C1.37679879 6.43974581 0.35991738 12.67572401 -1 19 C-1.33 19 -1.66 19 -2 19 C-2 15.04 -2 11.08 -2 7 C-1.34 7 -0.68 7 0 7 C0 4.69 0 2.38 0 0 Z " fill="#AD262F" transform="translate(233,60)"/>
<path d="M0 0 C1.32 0 2.64 0 4 0 C4.33 0.99 4.66 1.98 5 3 C4.01 3.33 3.02 3.66 2 4 C2 4.99 2 5.98 2 7 C-0.9375 6.625 -0.9375 6.625 -4 6 C-4.33 5.34 -4.66 4.68 -5 4 C-3.35 4 -1.7 4 0 4 C0 2.68 0 1.36 0 0 Z " fill="#C7232E" transform="translate(110,104)"/>
<path d="M0 0 C0.66 0 1.32 0 2 0 C1.39816251 2.02045442 0.72693904 4.02111039 0 6 C-2.64458379 7.32229189 -4.67761301 7.09677194 -7.625 7.0625 C-8.62789063 7.05347656 -9.63078125 7.04445313 -10.6640625 7.03515625 C-11.43492187 7.02355469 -12.20578125 7.01195313 -13 7 C-13 6.67 -13 6.34 -13 6 C-9.7 6 -6.4 6 -3 6 C-2.67 4.68 -2.34 3.36 -2 2 C-1.34 2 -0.68 2 0 2 C0 1.34 0 0.68 0 0 Z " fill="#AB232E" transform="translate(309,105)"/>
<path d="M0 0 C0.99 0 1.98 0 3 0 C3 2.64 3 5.28 3 8 C1.35 8 -0.3 8 -2 8 C-1.34 7.67 -0.68 7.34 0 7 C0 4.69 0 2.38 0 0 Z " fill="#E21C1F" transform="translate(276,77)"/>
<path d="M0 0 C0.33 0 0.66 0 1 0 C1.33 2.97 1.66 5.94 2 9 C0.35 9.33 -1.3 9.66 -3 10 C-2.69201674 8.51988629 -2.378482 7.04092675 -2.0625 5.5625 C-1.88847656 4.73878906 -1.71445312 3.91507812 -1.53515625 3.06640625 C-1 1 -1 1 0 0 Z " fill="#D0211F" transform="translate(454,73)"/>
<path d="M0 0 C3.49234244 -0.09978121 6.59437148 0.22157062 10 1 C7.61426621 2.89213369 5.92824652 4.02391783 3 5 C2.01 3.35 1.02 1.7 0 0 Z " fill="#B92736" transform="translate(137,67)"/>
<path d="M0 0 C2.875 -0.125 2.875 -0.125 6 0 C6.66 0.66 7.32 1.32 8 2 C7.7578125 3.9453125 7.7578125 3.9453125 7.125 6.125 C6.92132813 6.84945312 6.71765625 7.57390625 6.5078125 8.3203125 C6.34023438 8.87460937 6.17265625 9.42890625 6 10 C5.67 10 5.34 10 5 10 C5 7.36 5 4.72 5 2 C3.35 1.67 1.7 1.34 0 1 C0 0.67 0 0.34 0 0 Z " fill="#A8292B" transform="translate(282,53)"/>
<path d="M0 0 C0.33 0 0.66 0 1 0 C2.44729968 8.00374162 2.44729968 8.00374162 0.625 12.0625 C0.08875 12.701875 -0.4475 13.34125 -1 14 C-1.33 14 -1.66 14 -2 14 C-1.03644647 4.58997722 -1.03644647 4.58997722 0 0 Z " fill="#B12A2D" transform="translate(183,73)"/>
<path d="M0 0 C1.98 0.495 1.98 0.495 4 1 C2.84414715 4.91211733 1.64465038 7.8745041 -1 11 C-1 9.02 -1 7.04 -1 5 C-0.34 5 0.32 5 1 5 C0.67 3.35 0.34 1.7 0 0 Z " fill="#B6282D" transform="translate(320,77)"/>
<path d="M0 0 C0.66 0 1.32 0 2 0 C2 1.98 2 3.96 2 6 C2.66 6.33 3.32 6.66 4 7 C4 7.66 4 8.32 4 9 C2.02 9.33 0.04 9.66 -2 10 C-1.67 9.278125 -1.34 8.55625 -1 7.8125 C0.00603529 4.98302573 0.16977402 2.97104534 0 0 Z " fill="#B8262D" transform="translate(426,65)"/>
<path d="M0 0 C1.00335818 3.12155879 0.80670923 4.87400172 0 8 C0.33 8.99 0.66 9.98 1 11 C0.34 11.66 -0.32 12.32 -1 13 C-1 12.34 -1 11.68 -1 11 C-1.66 10.67 -2.32 10.34 -3 10 C-1.125 2.25 -1.125 2.25 0 0 Z " fill="#C1262F" transform="translate(312,79)"/>
<path d="M0 0 C0 0.66 0 1.32 0 2 C-0.66 2 -1.32 2 -2 2 C-2.33 2.99 -2.66 3.98 -3 5 C-5.31 4.01 -7.62 3.02 -10 2 C-10 1.67 -10 1.34 -10 1 C-2.25 0 -2.25 0 0 0 Z " fill="#BF2222" transform="translate(140,62)"/>
<path d="M0 0 C1.32 0 2.64 0 4 0 C4.33 1.65 4.66 3.3 5 5 C3.68 5 2.36 5 1 5 C0.67 3.35 0.34 1.7 0 0 Z " fill="#D72229" transform="translate(488,58)"/>
<path d="M0 0 C1.07310858 3.27185553 0.89263102 5.42947592 0.0625 8.75 C-0.22947266 9.94882813 -0.22947266 9.94882813 -0.52734375 11.171875 C-0.68332031 11.77515625 -0.83929688 12.3784375 -1 13 C-1.33 13 -1.66 13 -2 13 C-3.46845421 7.52667068 -2.44038726 4.88077452 0 0 Z " fill="#AA2D30" transform="translate(376,98)"/>
<path d="M0 0 C0.33 0 0.66 0 1 0 C1.125 6.75 1.125 6.75 0 9 C-1.32 8.34 -2.64 7.68 -4 7 C-3.525625 6.5875 -3.05125 6.175 -2.5625 5.75 C-0.83733482 3.817815 -0.43415125 2.51807725 0 0 Z " fill="#D22322" transform="translate(436,89)"/>
<path d="M0 0 C-1.75 5.75 -1.75 5.75 -4 8 C-4.33 5.69 -4.66 3.38 -5 1 C-3 0 -3 0 0 0 Z " fill="#BF242A" transform="translate(319,88)"/>
<path d="M0 0 C1.65 0 3.3 0 5 0 C4.67 1.32 4.34 2.64 4 4 C2.68 3.67 1.36 3.34 0 3 C0 2.01 0 1.02 0 0 Z " fill="#D22124" transform="translate(360,55)"/>
<path d="M0 0 C0.33 0 0.66 0 1 0 C1 2.31 1 4.62 1 7 C0.01 7.33 -0.98 7.66 -2 8 C-2.33 6.68 -2.66 5.36 -3 4 C-2.01 3.67 -1.02 3.34 0 3 C0 2.01 0 1.02 0 0 Z " fill="#B7252B" transform="translate(464,69)"/>
<path d="M0 0 C1.32 0.66 2.64 1.32 4 2 C3.67 3.32 3.34 4.64 3 6 C3 5.34 3 4.68 3 4 C1.35 4 -0.3 4 -2 4 C-1.34 2.68 -0.68 1.36 0 0 Z " fill="#CD231E" transform="translate(144,62)"/>
<path d="M0 0 C0.66 0.66 1.32 1.32 2 2 C1.625 4.125 1.625 4.125 1 6 C0.34 5.67 -0.32 5.34 -1 5 C-1 5.99 -1 6.98 -1 8 C-1.66 8 -2.32 8 -3 8 C-1.125 2.25 -1.125 2.25 0 0 Z " fill="#B82B32" transform="translate(322,58)"/>
<path d="M0 0 C1.32 0 2.64 0 4 0 C3.625 2.4375 3.625 2.4375 3 5 C2.01 5.495 2.01 5.495 1 6 C1 4.68 1 3.36 1 2 C0.34 1.67 -0.32 1.34 -1 1 C-0.67 0.67 -0.34 0.34 0 0 Z " fill="#BD282B" transform="translate(140,95)"/>
<path d="M0 0 C0.33 0.66 0.66 1.32 1 2 C1.66 2.33 2.32 2.66 3 3 C2.67 3.99 2.34 4.98 2 6 C1.01 6.33 0.02 6.66 -1 7 C-1.33 5.02 -1.66 3.04 -2 1 C-1.34 0.67 -0.68 0.34 0 0 Z " fill="#D12223" transform="translate(459,83)"/>
</svg>
